<?xml version="1.0" encoding="UTF-8"?><svg id="c" xmlns="http://www.w3.org/2000/svg" viewBox="0 0 200 75"><defs><style>.d{fill:none;}.e{fill:#fff;}</style></defs><rect class="d" x="12.815" y="29.024" width="174.369" height="16.953"/><path class="e" d="M29.457,29.3l-16.642,16.658h2.577c1.186,0,2.312-.476,3.155-1.302l11.265-11.264c.482-.482,1.264-.482,1.752,0l11.253,11.264c.837.838,1.969,1.302,3.155,1.302h2.577l-16.654-16.658c-.674-.675-1.758-.675-2.444,0h.006Z"/><path class="e" d="M81.224,28.788c-1.186,0-2.318.476-3.155,1.302l-11.265,11.264c-.482.482-1.265.482-1.752,0l-11.253-11.264c-.837-.838-1.969-1.302-3.155-1.302h-2.577l16.654,16.658c.674.675,1.758.675,2.432,0l16.654-16.658h-2.583Z"/><path class="e" d="M133.491,35.249h-1.542c-.439,0-.794.356-.794.802v9.113c0,.44.355.802.794.802h1.542c.439,0,.795-.356.795-.802v-9.113c0-.44-.356-.802-.795-.802Z"/><path class="e" d="M147.79,30.102c-.837-.838-1.981-1.302-3.161-1.302h-28.81l1.825,1.814c.836.838,1.981,1.308,3.161,1.308h28.81l-1.825-1.814v-.006Z"/><path class="e" d="M99.925,29.3l-16.654,16.658h2.577c1.186,0,2.318-.476,3.155-1.302l11.265-11.264c.482-.482,1.265-.482,1.752,0l11.265,11.264c.837.838,1.969,1.302,3.155,1.302h2.577l-16.642-16.658c-.674-.675-1.77-.675-2.432,0"/><path class="e" d="M179.737,38.533h2.571c2.77,0,5.003-2.296,4.877-5.081-.121-2.628-2.378-4.647-5.003-4.647h-25.673l1.825,1.814c.837.838,1.981,1.302,3.161,1.302h20.7c.909,0,1.74.675,1.812,1.585.09,1.031-.723,1.898-1.74,1.898h-24.968c-.44,0-.801.356-.801.802v8.956c0,.44.355.802.801.802h1.547c.44,0,.795-.356.795-.802v-6.636h15.648l6.141,6.111c.837.85,1.987,1.32,3.179,1.32h2.577l-7.454-7.425v-.018l.006.018Z"/></svg>