<?xml version="1.0" encoding="UTF-8"?><svg id="c" xmlns="http://www.w3.org/2000/svg" viewBox="0 0 200 75"><defs><style>.d{fill:#fff;}</style></defs><polygon class="d" points="70.067 35.61 38.278 35.61 38.278 49.991 27.681 49.991 27.681 25.014 69.688 25.014 70.742 26.209 70.067 35.61"/><rect class="d" x="42.819" y="39.395" width="27.248" height="10.596"/><path class="d" d="M172.243,25.018c.341,1.312-.544,1.513-1.127,2.272-1.724,2.248-10.25,8.786-10.247,10.214l11.374,12.483c-7.169,1.662-9.331-6.476-14.755-9.105-5.425,2.628-7.589,10.774-14.759,9.102l12.096-12.481c0-1.158-9.654-8.557-10.974-10.205-.612-.764-1.441-.996-1.119-2.279,6.882-1.456,9.992,6.189,14.756,9.822,4.764-3.632,7.874-11.278,14.756-9.822Z"/><path class="d" d="M104.127,25.014v3.784h-17.787l-1.135,1.135v20.058h-3.784v-21.571c0-.344,3.636-3.406,4.163-3.406h18.544Z"/><path class="d" d="M112.231,25.171c2.205-.644,17.372-.513,20.296-.173,3.503.407,5.274,2.199,5.677,5.677.589,5.09,1.628,18.499-4.898,19.356-3.006.394-19.341.376-21.654-.372-2.166-.7-2.75-2.475-2.997-4.572-.499-4.237-1.208-18.518,3.577-19.915ZM133.645,28.799h-20.058l-1.135,1.135v15.138l1.135,1.135h20.058v-17.408Z"/></svg>