<?xml version="1.0" encoding="UTF-8"?><svg id="c" xmlns="http://www.w3.org/2000/svg" viewBox="0 0 200 75"><defs><style>.d{fill:#fff;}</style></defs><path class="d" d="M53.888,54.661h-10.288v-12.712l-10.288-10.286v-11.324h20.565l.012,34.321ZM19.598,54.661V20.339h10.276v12.736l10.288,10.286v11.287l-20.565.012ZM57.314,16.911H16.172v41.178h41.142V16.911Z"/><path class="d" d="M89.425,30.819l-10.662,11.13h10.107v2.27h-15.704v-.048l10.662-11.119h-10.071v-2.27h15.68v.036h-.012Z"/><path class="d" d="M156.098,44.232l-9.854-6.941v6.941h-2.75v-13.448h2.75v6.471l9.577-6.471h4.234l-9.625,6.422,9.951,7.014h-4.282v.012Z"/><path class="d" d="M183.828,44.232l-7.465-5.022h1.386c2.629,0,4.933-1.509,4.933-4.068v-.181c0-2.608-2.327-4.177-5.03-4.177h-10.94v13.436h2.751v-7.014l10.313,7.014h4.052v.012ZM169.451,33.065h8.249c1.026,0,1.978.41,2.244,1.243.012.145.048.495.048.845,0,.362-.023.712-.048.845-.277.736-1.218,1.183-2.244,1.183h-8.249v-4.117Z"/><path class="d" d="M111.735,41.841v2.39h-13.955v-13.448h13.955v2.39h-11.289v2.885h10.698v2.39h-10.698v3.38h11.289v.012Z"/><path class="d" d="M134.593,41.841v2.39h-13.955v-13.448h13.955v2.39h-11.29v2.885h10.698v2.39h-10.698v3.38h11.29v.012Z"/></svg>