<?xml version="1.0" encoding="UTF-8"?><svg id="c" xmlns="http://www.w3.org/2000/svg" viewBox="0 0 118.129 118.968"><defs><style>.d{fill:#82bd48;}</style></defs><path class="d" d="M64.267,26.421c-.224.053-.363.278-.31.502.053.224.278.363.502.31.224-.053.363-.278.31-.502-.053-.224-.278-.363-.502-.31ZM63.726,21.649c-1.21,0-2.191.981-2.191,2.191s.981,2.191,2.191,2.191,2.191-.981,2.191-2.191-.981-2.191-2.191-2.191ZM61.033,25.262c-.185.137-.223.399-.086.584.138.185.399.223.584.086s.223-.399.086-.584-.399-.223-.583-.086ZM62.781,26.281c-.216-.079-.456.033-.535.249-.079.216.033.456.249.535.216.079.456-.033.535-.249.079-.216-.033-.456-.249-.535ZM66.302,24.412c-.04.227.111.443.338.483.227.04.443-.111.483-.338.04-.227-.111-.443-.338-.483-.227-.04-.443.111-.483.338ZM65.585,25.721c-.158.167-.15.431.017.589s.431.151.589-.017c.158-.168.151-.431-.017-.59s-.431-.151-.59.017ZM61.553,22.489c.115-.199.047-.455-.152-.57-.199-.115-.454-.047-.57.152-.115.199-.047.455.152.57.199.115.455.047.57-.152ZM65.84,21.629c.127-.192.073-.451-.119-.578-.193-.127-.451-.073-.578.119s-.073.451.119.578c.193.126.451.073.578-.119ZM63.849,21.27c.23,0,.417-.187.417-.417s-.187-.417-.417-.417-.417.187-.417.417.187.417.417.417ZM61.157,23.928c-.013-.23-.21-.405-.44-.393-.23.013-.406.21-.393.44.013.23.21.406.44.392.23-.013.406-.21.393-.44ZM30.932,84.643v4.354c-.418-.152-.867-.24-1.338-.24-.402,0-.79.061-1.155.173v-4.3c-4.061.583-7.183,4.075-7.183,8.298,0,1.804.571,3.473,1.541,4.841l1.755-1.824.096-.1,1.42-1.475c.093.192.2.375.322.549.364.519.85.946,1.419,1.238l-3.284,3.413c1.416,1.093,3.19,1.745,5.118,1.745,1.997,0,3.83-.699,5.27-1.864l-2.005-1.823-1.585-1.442c.765-.378,1.389-.996,1.771-1.758l3.504,3.187c.903-1.338,1.43-2.95,1.43-4.685,0-4.192-3.077-7.666-7.095-8.287ZM79.216,84.643v4.354c-.418-.152-.867-.24-1.338-.24-.402,0-.789.061-1.154.173v-4.3c-4.061.583-7.183,4.075-7.183,8.298,0,1.804.571,3.473,1.541,4.841l3.271-3.399c.093.192.2.375.322.549.364.519.85.946,1.419,1.238l-1.555,1.616-1.729,1.797c1.416,1.093,3.19,1.745,5.118,1.745,1.997,0,3.83-.699,5.27-1.864l-1.808-1.645h0l-1.782-1.621c.766-.378,1.389-.996,1.771-1.758l3.504,3.187c.903-1.338,1.43-2.95,1.43-4.685,0-4.192-3.077-7.666-7.096-8.287ZM62.523,21.583c.199-.116.266-.372.149-.571-.116-.199-.372-.266-.571-.149-.199.116-.266.372-.149.571s.372.266.571.149ZM112.418,26.421c-.224.053-.363.278-.31.502s.278.363.502.31c.224-.053.363-.278.31-.502s-.278-.363-.502-.31ZM109.184,25.262c-.185.137-.223.399-.086.584.137.185.399.223.583.086.185-.137.223-.399.086-.584-.138-.185-.399-.223-.584-.086ZM110.932,26.281c-.216-.079-.456.033-.535.249-.079.216.033.456.249.535.216.079.456-.033.535-.249.079-.216-.032-.456-.249-.535ZM111.878,21.649c-1.21,0-2.191.981-2.191,2.191s.981,2.191,2.191,2.191,2.191-.981,2.191-2.191-.981-2.191-2.191-2.191ZM118.065,23.84c0-3.417-2.77-6.187-6.187-6.187-1.932,0-3.635.904-4.77,2.291h-38.612c-1.135-1.387-2.838-2.291-4.77-2.291-3.417,0-6.187,2.77-6.187,6.187,0,1.461.528,2.786,1.375,3.845v2.526h-3.238v41.34h-4.28l-2.782-14.621c-.612-3.216-3.424-5.544-6.698-5.544h-18.865l-4.934,15.557-13.988,4.243C1.56,71.966-.006,74.353.067,76.843h-.003c.005.164.049.328.068.492.028.239.039.478.099.716.101.406.248.808.445,1.2l2.714,5.38,2.558,5.072c.896,1.777,2.486,3.062,4.344,3.593.619.177,1.269.27,1.932.27h5.387c0-.427.026-.848.071-1.264.014-.135.042-.266.061-.4.04-.278.082-.555.141-.827.033-.153.077-.303.117-.454.064-.245.131-.489.21-.727.051-.154.109-.305.167-.456.087-.229.178-.455.279-.677.066-.146.137-.29.209-.433.111-.219.228-.433.352-.644.079-.134.158-.268.242-.398.137-.213.283-.418.433-.621.086-.116.169-.234.26-.347.171-.214.354-.419.539-.62.083-.09.161-.184.246-.271.24-.245.493-.477.754-.7,2.033-1.74,4.669-2.796,7.554-2.796s5.521,1.057,7.554,2.796c.261.223.513.455.753.7.086.087.164.182.247.271.186.202.368.406.539.62.09.113.174.231.26.347.15.203.296.409.433.621.084.131.163.264.242.398.124.21.242.425.352.644.072.143.142.287.209.433.101.222.192.448.279.677.057.151.116.302.167.456.079.238.146.482.21.727.04.151.083.3.117.454.059.271.101.549.141.827.019.134.046.265.061.4.045.415.071.836.071,1.264h24.625s0-.01,0-.014c0-.422.026-.838.071-1.248.015-.137.042-.27.062-.405.04-.276.081-.551.14-.821.034-.155.078-.305.118-.458.064-.244.13-.486.209-.723.052-.155.11-.307.168-.459.087-.227.178-.453.278-.673.067-.147.137-.292.21-.436.11-.218.227-.431.351-.641.079-.135.159-.269.243-.401.137-.212.282-.418.432-.62.086-.116.17-.235.26-.348.171-.214.353-.417.537-.618.083-.091.162-.185.249-.273.24-.245.492-.477.753-.699.053-.045.1-.096.154-.14,1.437-1.186,3.163-2.033,5.056-2.421.757-.155,1.542-.236,2.345-.236,2.886,0,5.521,1.057,7.554,2.796.261.223.513.455.753.7.086.087.164.182.247.271.186.202.368.406.539.62.09.113.174.231.259.347.15.203.296.409.433.621.084.131.163.264.242.398.124.21.242.425.352.644.072.143.142.287.209.433.101.222.192.448.279.677.057.151.116.302.167.456.079.238.146.482.21.727.04.151.083.3.117.454.059.271.101.549.141.827.019.134.046.265.061.4.045.415.071.836.071,1.264h7.464c.589,0,1.162-.094,1.702-.27,1.619-.528,2.938-1.793,3.503-3.469l3.976-11.804c.133-.394.212-.79.244-1.181h0c.225-2.765-1.954-5.293-4.895-5.293h-28.782l3.375-.07-3.338-41.38-.048-.074h3.136l31.104-3.699c.924,2.097,2.978,3.568,5.392,3.672v24.845h-2.021l.019,2.213.012,1.36c0,2.817,1.603,2.914,1.603,2.914h.416v1.252s.281-.016.281-.016c.007,0,.767-.038,1.264.431.299.283.451.702.451,1.247,0,.337-.101.596-.309.791-.486.455-1.387.4-1.413.401-.057,0-1.396-.017-1.396-1.483,0-.147-.119-.265-.266-.265s-.266.119-.266.265c0,1.592,1.259,2.013,1.907,2.013.011.004.054.004.136.004.319,0,1.129-.052,1.657-.545.318-.296.479-.693.479-1.18,0-.699-.209-1.249-.622-1.637-.453-.424-1.034-.537-1.374-.565v-.713h.511c1.894,0,1.506-3.011,1.506-3.011v-3.476h-2.044v-24.845c3.291-.142,5.922-2.834,5.922-6.16ZM30.77,66.588l-1.522-3.728-4.775-.367,1.89-6.519,16.088.273c.655.011,1.206.493,1.304,1.14l1.404,9.202h-14.39ZM63.726,27.736c-2.152,0-3.896-1.744-3.896-3.896s1.744-3.896,3.896-3.896,3.896,1.745,3.896,3.896-1.744,3.896-3.896,3.896ZM111.878,27.736c-2.152,0-3.896-1.744-3.896-3.896s1.744-3.896,3.896-3.896,3.896,1.745,3.896,3.896-1.744,3.896-3.896,3.896ZM115.274,24.557c.04-.227-.111-.443-.338-.483-.227-.04-.443.111-.483.338-.04.227.111.443.338.483.227.04.443-.111.483-.338ZM113.736,25.721c-.158.167-.151.431.017.589s.431.151.59-.017c.158-.168.15-.431-.017-.59s-.431-.151-.589.017ZM114.88,23.143c.212-.091.309-.337.218-.548-.091-.212-.337-.309-.548-.218-.211.091-.309.337-.218.548s.337.309.548.218ZM109.308,23.928c-.013-.23-.21-.405-.44-.393-.23.013-.406.21-.393.44.013.23.21.406.44.392.23-.013.406-.21.392-.44ZM66.181,22.925c.091.212.337.309.548.218.212-.091.309-.337.218-.548s-.337-.309-.548-.218c-.212.091-.309.337-.218.548ZM112,21.27c.23,0,.417-.187.417-.417s-.187-.417-.417-.417-.417.187-.417.417.187.417.417.417ZM113.992,21.629c.127-.192.073-.451-.119-.578-.193-.127-.451-.073-.578.119-.126.193-.073.451.119.578.192.126.451.073.578-.119ZM110.674,21.583c.199-.116.266-.372.149-.571-.116-.199-.372-.266-.571-.149-.199.116-.266.372-.149.571.116.199.372.266.571.149ZM109.704,22.489c.115-.199.047-.455-.152-.57s-.454-.047-.57.152c-.115.199-.047.455.152.57.199.115.455.047.57-.152Z"/></svg>