<?xml version="1.0" encoding="UTF-8"?><svg id="c" xmlns="http://www.w3.org/2000/svg" viewBox="0 0 118.129 118.968"><defs><style>.d{fill:#82bd48;}</style></defs><path class="d" d="M75.314,65.477h6.109c1.312,0,2.376-1.064,2.376-2.376v-6.109c0-1.312-1.064-2.376-2.376-2.376h-6.109c-1.312,0-2.376,1.064-2.376,2.376v6.109c0,1.312,1.064,2.376,2.376,2.376ZM75.36,59.204l2.368,1.759,3.518-3.585h1.082l-4.532,5.412-3.247-3.653.812.068ZM78.309,53.158v-5.068h-11.139v1.027h10.112v4.041h1.027ZM87.718,40.655v6.109c0,1.312,1.064,2.376,2.376,2.376h6.11c1.312,0,2.376-1.064,2.376-2.376v-6.109c0-1.312-1.064-2.376-2.376-2.376h-6.11c-1.312,0-2.376,1.064-2.376,2.376ZM92.507,44.627l3.518-3.585h1.082l-4.532,5.412-3.247-3.653.812.068,2.368,1.759ZM63.786,44.484h18.278v-11.104h10.57v3.32h1.027v-4.348h-12.625v11.104h-17.251v1.027ZM112.862,15.939H5.267c-2.015,0-3.664,1.649-3.664,3.664v63.118c0,2.015,1.649,3.664,3.664,3.664h39.729v5.739l-13.103,8.165c-.106.066-.181.15-.262.231h0c-.22.219-.349.478-.398.754-.001.007-.002.014-.004.021-.02.126-.026.25-.014.376.002.026.006.051.01.077.016.107.037.21.075.312.017.048.041.092.063.138.038.078.075.154.126.225.044.062.098.113.151.168.047.049.09.1.144.141.078.06.169.103.262.146.047.022.087.052.138.07.151.051.314.082.494.082h52.774c.18,0,.344-.031.494-.082.05-.017.09-.047.137-.069.092-.043.184-.086.262-.146.055-.042.097-.093.144-.141.053-.054.107-.106.151-.168.051-.071.088-.147.126-.225.022-.046.046-.09.063-.138.037-.102.06-.205.075-.312.003-.026.008-.05.01-.077.012-.126.006-.25-.014-.375-.001-.007-.002-.015-.004-.022-.067-.377-.266-.739-.66-.984l-13.103-8.165v-5.739h39.729c2.016,0,3.664-1.649,3.664-3.664V19.603c0-2.015-1.649-3.664-3.664-3.664ZM109.919,75.331c0,2.015-1.649,3.664-3.664,3.664H12.491c-2.015,0-3.664-1.649-3.664-3.664V25.122c0-2.015,1.649-3.664,3.664-3.664h93.764c2.015,0,3.664,1.649,3.664,3.664v50.209ZM86.069,69.98h-48.502v-8.435h-1.027v9.462h50.557v-7.442h5.158v-1.027h-6.186v7.442ZM103.073,57.62h-6.109c-1.312,0-2.376,1.064-2.376,2.376v6.109c0,1.312,1.064,2.376,2.376,2.376h6.109c1.312,0,2.376-1.064,2.376-2.376v-6.109c0-1.312-1.064-2.376-2.376-2.376ZM99.445,65.794l-3.247-3.653.812.068,2.368,1.759,3.518-3.585h1.082l-4.532,5.412ZM16.981,63.528c0,1.39,1.137,2.528,2.527,2.528h3.924c1.39,0,2.528-1.137,2.528-2.528v-3.481h-8.979v3.481ZM52.225,66.055h3.924c1.39,0,2.528-1.137,2.528-2.528v-3.481h-8.979v3.481c0,1.39,1.137,2.528,2.528,2.528ZM64.454,33.21h-8.867v1.027h8.867v-1.027ZM68.843,39.155h6.109c1.312,0,2.376-1.064,2.376-2.376v-6.11c0-1.312-1.064-2.376-2.376-2.376h-6.109c-1.312,0-2.376,1.064-2.376,2.376v6.11c0,1.312,1.064,2.376,2.376,2.376ZM68.889,32.882l2.368,1.759,3.518-3.585h1.082l-4.532,5.412-3.247-3.653.812.068ZM63.085,58.136l.013-.117h0s.007-.062.007-.062l.627-5.581c.047-.417.056-.83.042-1.24,0-.014.002-.028.002-.042h-.005c-.099-2.544-1.325-4.858-3.243-5.918l-3.144-1.738,1.998-.849c.637-.271,1.064-1.017,1.064-1.857,0-1.219-.791-2.207-1.767-2.207h-2.006c-.325,0-.644.107-.925.309l-.612.441-2.086-7.075c-.695-2.356-2.492-3.921-4.502-3.921h-20.124c-2.01,0-3.807,1.565-4.502,3.921l-2.074,7.034-.556-.4c-.281-.203-.6-.309-.925-.309h-2.006c-.976,0-1.767.988-1.767,2.207,0,.84.428,1.586,1.064,1.857l1.959.833-3.174,1.755c-1.917,1.06-3.144,3.374-3.243,5.918h-.005c0,.014.002.029.001.042-.014.409-.005.823.042,1.24l.644,5.73h0s.004.036.004.036h0s.004.034.004.034c.062.549.526.964,1.078.964h46.991c.575,0,1.059-.432,1.123-1.004ZM26.924,34.027c.419-1.307,1.433-2.165,2.561-2.165h18.343c1.129,0,2.144.859,2.562,2.169l3.089,9.678h-29.657l3.102-9.683ZM19.958,55.078c-2.493,0-4.514-2.021-4.514-4.514s2.021-4.514,4.514-4.514,4.514,2.021,4.514,4.514-2.021,4.514-4.514,4.514ZM57.164,55.078c-2.493,0-4.514-2.021-4.514-4.514s2.021-4.514,4.514-4.514,4.514,2.021,4.514,4.514-2.021,4.514-4.514,4.514Z"/></svg>