<?xml version="1.0" encoding="UTF-8"?><svg id="c" xmlns="http://www.w3.org/2000/svg" viewBox="0 0 118.129 118.968"><defs><style>.d{fill:#82bd48;}</style></defs><path class="d" d="M59.95,86.352l-.12-.285c-.012-.028-.046-.112-.094-.244-.455.425-.948.83-1.459,1.225h2.194c-.121-.15-.252-.304-.346-.441l-.175-.254ZM117.608,38.289c.291-3.511-2.228-6.556-5.61-7.04H38.315v-6.29c0-1.285-1.042-2.327-2.327-2.327H11.123c-1.285,0-2.327,1.042-2.327,2.327v6.29h-3.099c-3.423.49-5.954,3.602-5.599,7.152l.79,52.016c.336,3.36,3.163,5.918,6.54,5.918h104.087c3.419,0,6.268-2.622,6.55-6.03l-.456-52.016ZM75.064,45.645h33.108c1.12,0,2.036.916,2.036,2.036s-.916,2.036-2.036,2.036h-32.419c-.008,1.061-.157,2.024-.388,2.829h32.807c1.12,0,2.036.916,2.036,2.036s-.916,2.036-2.036,2.036h-30.824c.452.198.903.413,1.354.649,1.199.626,2.267,1.371,3.254,2.18h26.215c1.12,0,2.036.916,2.036,2.036s-.916,2.036-2.036,2.036h-22.573c.558.891.999,1.844,1.374,2.829h21.199c1.12,0,2.036.916,2.036,2.036s-.916,2.036-2.036,2.036h-20.223c.056.514.123,1.025.134,1.554.008.426,0,.851-.022,1.275h20.111c1.12,0,2.036.916,2.036,2.036s-.916,2.036-2.036,2.036h-20.812c-.28.969-.637,1.915-1.068,2.829h21.88c1.12,0,2.036.916,2.036,2.036s-.916,2.036-2.036,2.036h-24.467c-.854,1.035-1.815,1.986-2.876,2.829h27.343c1.12,0,2.036.916,2.036,2.036s-.916,2.036-2.036,2.036h-36.574c-.637.087-1.269.147-1.89.147-.661,0-1.289-.055-1.891-.147H9.291c-1.12,0-2.036-.916-2.036-2.036s.916-2.036,2.036-2.036h27.443c-1.029-.835-1.971-1.784-2.81-2.829H9.291c-1.12,0-2.036-.916-2.036-2.036s.916-2.036,2.036-2.036h22.12c-.412-.905-.743-1.854-1.013-2.829H9.291c-1.12,0-2.036-.916-2.036-2.036s.916-2.036,2.036-2.036h20.428c-.003-.045-.011-.089-.013-.135-.045-.958-.016-1.842.044-2.694H9.291c-1.12,0-2.036-.916-2.036-2.036s.916-2.036,2.036-2.036h21.191c.328-1.05.738-1.996,1.217-2.829H9.291c-1.12,0-2.036-.916-2.036-2.036s.916-2.036,2.036-2.036h26.199c1.563-1.045,3.162-1.589,4.409-1.751l.306-.04.308.024c.049.004.248.021.562.07-.102-.363-.186-.748-.271-1.133H9.291c-1.12,0-2.036-.916-2.036-2.036s.916-2.036,2.036-2.036h31.013c-.018-.963.056-1.904.184-2.829H9.291c-1.12,0-2.036-.916-2.036-2.036s.916-2.036,2.036-2.036h32.264c.404-.993.915-1.934,1.508-2.829H9.291c-1.12,0-2.036-.916-2.036-2.036s.916-2.036,2.036-2.036h37.612c3.127-2.369,7.057-3.699,11.209-3.699,2.857,0,5.726.652,8.297,1.886,1.175.564,2.201,1.174,3.116,1.812h38.647c1.12,0,2.036.916,2.036,2.036s-.916,2.036-2.036,2.036h-34.555c.634.941,1.115,1.892,1.447,2.829ZM71.483,58.106c-.345-.034-.683-.053-1.015-.059-.08-.002-.166-.014-.246-.014-.036,0-.069.007-.105.007-.493.004-.97.037-1.433.094-.086.011-.169.026-.254.038-.438.064-.863.146-1.273.249-.034.009-.069.015-.103.024-.469.123-.917.27-1.348.435-.01.004-.018.007-.028.011-1.633.629-2.993,1.515-4.037,2.372-.717-.409-1.536-.661-2.421-.661-1.132,0-2.161.398-2.992,1.04-.297-.56-.51-1.374-.509-2.208,0-.264.022-.529.071-.79.048-.253.126-.5.229-.736.007-.016.013-.033.02-.049.109-.239.247-.466.422-.673.002-.002.004-.004.006-.006.171-.2.38-.379.621-.535.91-.59,2.339-.83,4.53-.351,5.934,1.296,9.454-2.492,10.435-3.747h.002c.021-.026.028-.038.047-.063.063-.082.112-.148.15-.2.016-.023.024-.033.036-.05.036-.051.058-.084.058-.084,0,0,.024-.069.055-.167.001-.005.002-.008.004-.013.209-.672.868-3.328-.588-6.322-.123-.254-.267-.51-.423-.767-.095-.158-.204-.316-.312-.474-.083-.121-.172-.241-.263-.362-1.148-1.535-2.925-3.076-5.705-4.411-2.24-1.075-4.622-1.584-6.958-1.59-.014,0-.029-.002-.043-.002-.069,0-.136.007-.205.008-.295.004-.59.014-.883.034-.103.007-.205.017-.307.026-.295.026-.588.059-.88.1-.068.01-.136.019-.203.03-6.763,1.047-12.509,6.338-12.331,14.283,0,.008,0,.017,0,.025h.001c.013.534.043,1.076.11,1.634.18,1.477.513,2.768.941,3.923,0,.003.002.005.003.008,1.143,3.076,3.033,5.082,5.016,6.384.031.02.062.043.093.063.435.281.872.527,1.307.745.039.02.078.038.117.057.9.441,1.778.76,2.579.988.335.095.66.18.962.247.289,1.293,1.087,2.386,2.173,3.073-.025.08-.044.175-.073.246-.064.158-.17.331-.294.507h0c-.157.222-.358.452-.592.671-.008.007-.017.014-.024.022-.11.102-.227.202-.351.298-.025.019-.053.036-.078.055-.113.084-.228.166-.351.242-.067.041-.139.076-.209.114-.129.071-.261.137-.398.196-.124.053-.248.105-.377.146-.061.02-.125.03-.187.047-.118.031-.235.061-.356.079-.072.011-.145.013-.217.018-.105.009-.211.015-.317.013-.469-.011-.944-.133-1.402-.414-.021-.013-.041-.029-.062-.043-.22-.142-.436-.318-.645-.536-.015-.016-.031-.032-.046-.048-.223-.24-.439-.522-.643-.859h-.005c-.357-.592-.683-1.331-.954-2.276-.59-2.057-1.599-3.54-2.722-4.624h0c-2.675-2.583-6.017-2.852-6.017-2.852,0,0-3.396.459-5.651,3.828-.092.136-.182.274-.27.419-.081.136-.16.275-.237.42-.129.24-.25.495-.366.761-.604,1.393-1.006,3.145-1.063,5.332-.018.492-.024.999.001,1.545.071,1.513.358,2.971.817,4.347h-.001c.004.013.01.024.014.037.16.476.338.942.539,1.396.004.009.007.017.011.026.195.438.409.863.64,1.278.017.03.029.062.046.092h.006c3.698,6.567,11.722,10.14,19.261,6.111.026-.014.051-.029.077-.043.568-.307,1.133-.649,1.693-1.045.44-.311.85-.629,1.235-.951,2.072-1.734,3.351-3.605,4.112-5.452.016-.039.03-.078.045-.117.988-2.47,1.047-4.883.774-6.858-.004-.03-.008-.058-.012-.087-.065-.454-.144-.886-.236-1.287h0c-.048-.209-.097-.414-.148-.606,1.29-.707,2.216-1.965,2.473-3.466.004-.025.016-.047.02-.073.107.017.219.045.332.073,1.552.386,3.576,1.79,3.059,4.071-.046.204-.115.416-.205.635-.003.006-.005.012-.007.018-.091.218-.205.443-.344.675,0,.001-.002.003-.003.004-.283.471-.668.97-1.173,1.497-.151.158-.29.312-.463.475-1.238,1.161-2.03,2.391-2.535,3.597h0c-.205.488-.362.97-.478,1.443-.001.005-.002.009-.003.013-.57,2.343-.171,4.416.123,5.444h0c.031.109.059.2.086.284l.004.012c.08.246.139.394.139.394,0,0,4.004,5.795,12.401,2.138h.022c.036-.016.074-.036.111-.052.096-.043.194-.092.291-.137.514-.239,1.04-.502,1.586-.815.489-.281.949-.593,1.391-.922.393-.283.762-.589,1.123-.902h0c2.19-1.898,3.79-4.298,4.693-6.899,0,0,0-.001,0-.002.46-1.325.753-2.693.84-4.072h0c.021-.336.009-.671.007-1.007-.003-.17.003-.341-.006-.511-.018-.44-.062-.875-.121-1.311h0c-.259-1.924-.924-3.786-2.023-5.484-.018-.028-.036-.056-.055-.084-1.27-1.929-3.075-3.643-5.54-4.93-2.004-1.047-3.863-1.586-5.575-1.786-.086-.011-.171-.019-.257-.028ZM61.898,65.964c-.025.13-.057.258-.097.382-.352,1.096-1.368,1.893-2.58,1.893s-2.228-.798-2.58-1.893c-.04-.124-.073-.252-.097-.382-.024-.146-.045-.294-.045-.447,0-.196.022-.385.061-.569.006-.029.019-.055.026-.084.039-.156.086-.309.151-.453.005-.011.012-.021.017-.032.153-.327.368-.62.631-.862.485-.445,1.125-.723,1.835-.723s1.35.278,1.835.723c.263.242.478.535.631.862.005.011.012.021.017.032.065.144.112.297.151.453.007.029.02.055.026.084.04.183.062.373.062.569,0,.153-.021.301-.045.447Z"/></svg>