<?xml version="1.0" encoding="UTF-8"?><svg id="c" xmlns="http://www.w3.org/2000/svg" viewBox="0 0 118.129 118.968"><defs><style>.d{fill:#82bd48;}</style></defs><path class="d" d="M112.519,45.691c-.454-1.763-.993-3.493-1.611-5.183-.31-.845-.639-1.681-.988-2.506-.698-1.651-1.474-3.26-2.324-4.825-.85-1.564-1.773-3.082-2.765-4.55-.992-1.468-2.052-2.886-3.177-4.249-1.125-1.363-2.314-2.671-3.562-3.919-1.249-1.249-2.556-2.437-3.92-3.562-5.452-4.499-11.782-7.972-18.695-10.122-5.185-1.613-10.697-2.481-16.412-2.481h0C28.583,4.293,3.873,29.003,3.873,59.484s24.71,55.191,55.191,55.191h0c6.668,0,13.059-1.182,18.977-3.349.845-.31,1.681-.639,2.506-.988,1.651-.698,3.26-1.474,4.825-2.324,1.564-.85,3.082-1.773,4.551-2.765,1.468-.992,2.886-2.052,4.249-3.177,1.014-.837,1.987-1.721,2.938-2.627,1.606-1.529,3.131-3.143,4.543-4.855,1.125-1.363,2.185-2.781,3.177-4.249.496-.734.975-1.481,1.436-2.239.617-1.016,1.19-2.06,1.742-3.117.685-1.312,1.331-2.647,1.911-4.018.349-.825.679-1.661.988-2.506.619-1.691,1.158-3.42,1.611-5.183,1.134-4.409,1.737-9.031,1.737-13.793s-.603-9.384-1.737-13.793ZM95.586,49.55l-2.971,4.879-9.927-6.045-18.168,11.111,18.08,11.173,10.296-6.52,3.056,4.827-7.947,5.033,8.538,5.276-3.003,4.86-8.44-5.216-.682,8.658-5.695-.448.912-11.587-17.711-10.945v20.777l10.959,5.331-.818,1.681-1.682,3.456-8.459-4.115v10.036h-2.857s-2.856,0-2.856,0v-9.922l-7.723,3.972-2.613-5.08,10.336-5.316v-20.85l-2.325,1.422h0s-15.424,9.434-15.424,9.434l1.169,12.13-5.687.548-.903-9.363-8.562,5.236-2.981-4.874,8.464-5.176-7.418-4.517,2.971-4.879,9.927,6.044,14.182-8.673h0s3.987-2.44,3.987-2.44l-2.699-1.668h0s-15.38-9.503-15.38-9.503l-10.296,6.52-3.056-4.827,7.947-5.033-8.538-5.276,3.003-4.86,8.44,5.216.682-8.658,5.695.448-.911,11.587,14.141,8.739h.001s3.57,2.205,3.57,2.205v-2.696h-.002v-18.08l-10.959-5.331,2.5-5.138,8.459,4.115v-10.036h5.713v9.922h0s7.723-3.972,7.723-3.972l2.613,5.08-10.336,5.316v16.624h.001v4.223l17.747-10.853-1.169-12.13,5.687-.548.903,9.363h0l8.562-5.236,1.49,2.437,1.49,2.437-8.464,5.176,7.418,4.517Z"/></svg>