<?xml version="1.0" encoding="UTF-8"?><svg id="c" xmlns="http://www.w3.org/2000/svg" viewBox="0 0 118.129 118.968"><defs><style>.d{fill:#82bd48;}</style></defs><path class="d" d="M111.856,30.158h.345c-.241-.027-.485-.041-.734-.041h-12.206v-6.666h-21.658v6.666h-40.271v-6.666H15.674v6.666H6.662c-.249,0-.495.015-.736.041h.352c-3.712.218-6.555,3.46-6.179,7.212l7.448,52.208c.338,3.372,3.175,5.94,6.564,5.94h90.81c3.432,0,6.291-2.632,6.574-6.052l6.548-52.208c.308-3.712-2.519-6.883-6.186-7.1ZM22.25,52.436h-11.103v-2.245h11.103v2.245ZM56.026,84.546l-5.236-6.969h4.537l1.567-12.352h-9.13l3.652-17.279h5.477l-3.58,12.878h10.031l-3.66,17.08h4.473l-8.133,6.642ZM109.605,52.436h-4.429v4.429h-2.245v-4.429h-4.429v-2.245h4.429v-4.429h2.245v4.429h4.429v2.245Z"/></svg>