<?xml version="1.0" encoding="UTF-8"?><svg id="c" xmlns="http://www.w3.org/2000/svg" viewBox="0 0 118.129 118.968"><defs><style>.d{fill:#82bd48;}</style></defs><path class="d" d="M6.647,58.967c-.423.15-.644.614-.495,1.037.15.423.614.644,1.037.495.423-.15.644-.614.495-1.037-.15-.423-.614-.644-1.037-.495Z"/><path class="d" d="M7.33,54.318c0-.449-.364-.812-.812-.812s-.812.364-.812.812.364.812.812.812.812-.364.812-.812Z"/><path class="d" d="M10.151,54.318c0-.449-.364-.812-.812-.812s-.812.364-.812.812.364.812.812.812.812-.364.812-.812Z"/><path class="d" d="M8.023,47.246c-.392-.219-.886-.079-1.105.313-.219.392-.079.886.313,1.105s.886.079,1.105-.313c.219-.392.079-.886-.313-1.105Z"/><path class="d" d="M3.411,45.599c.219-.391.079-.886-.313-1.105s-.886-.079-1.105.313c-.219.391-.079.886.313,1.105.392.219.886.079,1.105-.313Z"/><path class="d" d="M1.329,60.849c-.423.15-.644.614-.495,1.037.15.423.614.644,1.037.495.423-.15.644-.614.495-1.037-.15-.423-.614-.644-1.037-.495Z"/><path class="d" d="M3.988,59.908c-.423.15-.644.614-.495,1.037.15.423.614.644,1.037.495.423-.15.644-.614.495-1.037-.15-.423-.614-.644-1.037-.495Z"/><path class="d" d="M1.689,54.318c0-.449-.364-.812-.812-.812s-.812.364-.812.812.364.812.812.812.812-.364.812-.812Z"/><path class="d" d="M4.51,54.318c0-.449-.364-.812-.812-.812s-.812.364-.812.812.364.812.812.812.812-.364.812-.812Z"/><path class="d" d="M9.306,58.026c-.423.15-.644.614-.495,1.037.15.423.614.644,1.037.495.423-.15.644-.614.495-1.037-.15-.423-.614-.644-1.037-.495Z"/><path class="d" d="M5.561,45.87c-.392-.219-.886-.079-1.105.313s-.079.886.313,1.105c.391.219.886.079,1.105-.313.219-.391.079-.886-.313-1.105Z"/><path class="d" d="M14.981,53.506c-.449,0-.812.364-.812.812s.364.812.812.812.812-.364.812-.812-.364-.812-.812-.812Z"/><path class="d" d="M15.411,51.374c-.392-.219-.886-.079-1.105.313-.219.391-.079.886.313,1.105s.886.079,1.105-.313c.219-.391.079-.886-.313-1.105Z"/><path class="d" d="M21.642,51.657h-4.26v5.699h4.238c.177,1.512,1.199,2.81,2.667,3.307l15.016,5.084v-20.682l-14.638,3.391c-1.58.366-2.756,1.645-3.024,3.201Z"/><path class="d" d="M117.894,75.953c-1.643-23.38-.023-36.848-.006-36.982.082-.653-.382-1.248-1.035-1.33-.65-.084-1.249.381-1.33,1.036-.017.135-1.668,13.805-.006,37.444.736,10.474-.971,18.018-5.076,22.421-2.846,3.053-6.862,4.602-11.938,4.602-5.141,0-7.377-5.598-8.293-9.279,1.527-.625,2.862-1.74,3.742-3.268.142-.247.191-.538.138-.818l-4.614-23.008,5.155-3.859c1.234-.923,1.96-2.375,1.96-3.916v-2.615h3.488v5.176h1.438c.349,0,.632-.283.632-.632v-11.645c0-.349-.283-.632-.632-.632h-1.438v5.419h-3.488v-1.651c0-1.388-.59-2.711-1.623-3.639l-7.87-7.068h-21.033v2.131h-5.279v3h-8.075v-.017h-2.059l3.212-3.994c2.816,1.646,6.509,1.273,8.917-1.134l12.057-12.057,1.461,1.461,2.156-2.156-15.505-15.505-2.156,2.156,1.393,1.393-12.057,12.057c-2.86,2.86-2.86,7.54,0,10.4l1.198,1.198-3.341,4.149v-.952l-5.841-1.421v25.418l5.841-1.421v-3h12.8v3h5.279v2.131h9.579l-.325,2.201c-.27,1.829.489,3.659,1.976,4.759l.247.183-.209,1.414c-.268,1.812.476,3.623,1.935,4.726l.03.108-.194,1.312c-.26,1.761.436,3.521,1.815,4.631l1.237,4.535c.1.328.337.597.649.739l1.331.602c1.209.547,2.491.748,3.735.654,1.059,4.321,3.807,11.115,10.628,11.115,5.763,0,10.367-1.803,13.682-5.36,4.574-4.907,6.495-13.054,5.71-24.215ZM50.254,36.809c-.559-1.761-.896-4.43.859-6.847h21.333l-9.965,9.982s-1.286,2.057-4.193,2.38c-2.007.223-4.001-.526-5.465-1.918l-.73-.695c-.843-.802-1.488-1.794-1.839-2.903ZM72.446,64.707c0,.941-.77,1.711-1.711,1.711h-.63c-.941,0-1.711-.77-1.711-1.711v-19.154c0-.941.77-1.711,1.711-1.711h.63c.941,0,1.711.77,1.711,1.711v19.154Z"/><path class="d" d="M12.948,49.998c-.392-.219-.886-.079-1.105.313-.219.391-.079.886.313,1.105.391.219.886.079,1.105-.313s.079-.886-.313-1.105Z"/><path class="d" d="M11.965,57.084c-.423.15-.644.614-.495,1.037.15.423.614.644,1.037.495.423-.15.644-.614.495-1.037-.15-.423-.614-.644-1.037-.495Z"/><path class="d" d="M14.624,56.143c-.423.15-.644.614-.495,1.037.15.423.614.644,1.037.495.423-.15.644-.614.495-1.037-.15-.423-.614-.644-1.037-.495Z"/><path class="d" d="M12.16,55.13c.449,0,.812-.364.812-.812s-.364-.812-.812-.812-.812.364-.812.812.364.812.812.812Z"/><path class="d" d="M10.486,48.622c-.392-.219-.886-.079-1.105.313-.219.392-.079.886.313,1.105s.886.079,1.105-.313c.219-.392.079-.886-.313-1.105Z"/></svg>