<?xml version="1.0" encoding="UTF-8"?><svg id="c" xmlns="http://www.w3.org/2000/svg" viewBox="0 0 118.129 118.968"><defs><style>.d{fill:#82bd48;}</style></defs><path class="d" d="M24.979,46.768h27.639c3.623,0,6.181,3.579,4.975,6.995-1.818,5.148-5.75,11.732-14.211,14.621-14.892,5.086-29.651,0-29.651,0,0,0-7.773.969-11.594,8.537-.038.075-.073.154-.11.23-.127.262-.251.53-.369.807-.047.111-.091.227-.136.34-.101.253-.199.511-.291.777-.047.137-.092.276-.137.416-.082.256-.16.518-.233.786-.043.156-.084.313-.124.473-.066.268-.126.543-.184.822-.035.17-.07.339-.102.514-.052.288-.095.585-.137.885-.025.178-.052.353-.074.536-.038.33-.066.673-.092,1.017-.012.163-.03.321-.039.487-.029.517-.046,1.048-.046,1.597v7.63h54.772c-.39-1.768-.602-3.603-.602-5.488,0-.776.048-1.541.116-2.299.018-.198.038-.394.06-.591.081-.715.184-1.422.323-2.118.015-.076.032-.152.048-.228.14-.667.315-1.322.506-1.969.067-.226.137-.451.21-.674.188-.575.394-1.142.622-1.699.085-.207.173-.412.263-.617.229-.52.475-1.029.737-1.53.126-.24.254-.478.387-.713,4.351-7.711,12.606-12.926,22.091-12.926s17.74,5.215,22.091,12.926c.133.235.262.473.387.713.262.501.508,1.01.737,1.53.09.205.178.41.263.617.227.556.434,1.123.622,1.699.073.223.143.448.21.674.192.647.366,1.302.506,1.969.016.076.033.152.048.228.139.695.242,1.403.323,2.118.022.196.042.393.06.591.068.758.116,1.523.116,2.299,0,1.885-.212,3.72-.602,5.488h13.706V24.728s-62.901,3.486-93.086,22.041Z"/></svg>