<?xml version="1.0" encoding="UTF-8"?><svg id="c" xmlns="http://www.w3.org/2000/svg" viewBox="0 0 118.129 118.968"><defs><style>.d{fill:#82bd48;}</style></defs><path class="d" d="M59.065,3.031C27.937,3.031,2.612,28.356,2.612,59.484s25.325,56.453,56.453,56.453,56.452-25.325,56.452-56.453S90.193,3.031,59.065,3.031ZM59.065,14.377c22.304,0,40.867,16.275,44.465,37.571-40.923-14.169-74.892-6.117-88.658-1.521C19.076,29.88,37.294,14.377,59.065,14.377ZM51.531,103.95c-19.008-3.211-34.014-18.343-37.02-37.419l37.02,7.342v30.077ZM57.51,68.308c-5.805,0-10.51-4.705-10.51-10.51s4.705-10.51,10.51-10.51,10.51,4.705,10.51,10.51-4.705,10.51-10.51,10.51ZM63.067,104.404v-30.149l40.097-5.302c-4.091,19.071-20.27,33.699-40.097,35.451Z"/></svg>