<?xml version="1.0" encoding="UTF-8"?><svg id="c" xmlns="http://www.w3.org/2000/svg" viewBox="0 0 118.129 118.968"><defs><style>.d{fill:#82bd48;}</style></defs><path class="d" d="M24.432,41.649l17.168-4.434-6.74-13.131,4.856-9.07-5.061-9.861L23.355.484l-2.287,1.174,9.17,17.823-4.892,2.511-2.029,1.042-4.892,2.511L9.29,7.703l-2.288,1.174-2.793,11.904,5.061,9.861,10.2,1.342,4.961,9.665ZM108.75,30.485l-12.422,1.783.599,4.854-16.905,1.123c-.575.038-1.136-.184-1.529-.605l-12.139-12.989c-1.286-1.376-3.11-2.104-5.005-1.997-4.932.278-11.954-.259-17.401-4.397-.35-.266-.701-.303-.935-.288-.449.03-1.016.305-1.137.981-.408,2.297-.299,4.387.324,6.211,1.425,4.168,8.537,6.653,11.158,7.259.861.199,1.475.961,1.487,1.845s-.583,1.661-1.439,1.882l-36.775,9.498c-1.832.473-3.123,2.061-3.213,3.951-.069,1.453.802,2.766,2.168,3.267l5.213,1.912c.828.304,1.342,1.132,1.247,2.009l-.354,3.258c-.163,1.494.704,2.913,2.107,3.451l3.783,1.45c.763.292,1.257,1.036,1.231,1.852l-.094,3.005c-.049,1.549,1.008,2.945,2.513,3.318l3.09.767c.89.221,1.499,1.041,1.454,1.957l-.102,2.065c-.074,1.505.878,2.871,2.315,3.323l2.539.798c1.708.537,3.48.749,5.266.63l32.268-2.144c5.808-.386,11.212-3.225,14.824-7.789l4.393-5.55c.336-.425.837-.688,1.377-.724l1.877-.125.895,7.253,12.492-2.44-5.17-40.656ZM46.844,55.431c-.749,0-1.395-.562-1.482-1.323-.095-.82.493-1.561,1.313-1.655l19.998-2.304c.824-.098,1.561.493,1.655,1.313.095.82-.493,1.561-1.313,1.655l-19.998,2.304c-.058.007-.115.01-.172.01ZM47.339,62.689c-.146-.813.394-1.589,1.205-1.736l19.811-3.575c.82-.144,1.589.394,1.736,1.205.146.813-.394,1.589-1.205,1.736l-19.811,3.575c-.091.016-.179.023-.267.023-.709,0-1.338-.506-1.469-1.229ZM70.004,66.853l-19.388,5.416c-.134.038-.268.055-.403.055-.654,0-1.253-.432-1.437-1.093-.222-.794.242-1.618,1.037-1.84l19.388-5.416c.791-.219,1.618.242,1.84,1.037.222.794-.242,1.618-1.037,1.84ZM80.598,102.153c-.019-.255-.062-.509-.095-.764-.03-.233-.048-.465-.089-.698-.05-.282-.124-.562-.191-.843-.048-.203-.083-.408-.14-.61-.088-.315-.204-.627-.314-.939-.058-.165-.103-.333-.167-.497-.186-.474-.397-.943-.634-1.406-2.297-4.474-6.511-7.318-11.124-8.051l-2.595-5.056-18.802,1.249,5.823,11.344c-2.407,4.286-2.69,9.658-.277,14.359,3.823,7.449,12.962,10.389,20.411,6.565.087-.045.166-.1.252-.146l.003.007c.119-.064.227-.141.344-.208.305-.175.609-.349.897-.542.128-.085.247-.18.372-.269.287-.204.572-.409.841-.629.113-.093.217-.195.328-.291.264-.231.528-.462.773-.708.101-.101.191-.209.288-.312.239-.254.478-.508.698-.777.09-.11.17-.227.257-.339.211-.272.42-.545.611-.83.082-.122.151-.25.229-.374.179-.285.359-.57.518-.866.073-.134.133-.275.201-.411.147-.294.295-.587.423-.889.063-.149.112-.304.171-.455.114-.297.231-.593.327-.896.053-.167.09-.339.137-.508.082-.294.167-.586.231-.884.04-.188.063-.379.097-.569.05-.285.105-.568.139-.856.024-.208.03-.418.045-.627.02-.273.048-.544.054-.818.005-.233-.011-.467-.018-.701-.007-.253-.004-.505-.023-.758ZM72.614,109.376l-2.927,1.502-3.445,1.768-6.819-2.193-3.271-6.372,2.193-6.819,6.372-3.271,6.819,2.193,3.271,6.372-2.193,6.819Z"/></svg>