<?xml version="1.0" encoding="UTF-8"?><svg id="c" xmlns="http://www.w3.org/2000/svg" viewBox="0 0 118.129 118.968"><defs><style>.d{fill:#82bd48;}</style></defs><path class="d" d="M27.524,43.757l.65,5.781.17,1.516h0l.005.043c.078.695.665,1.22,1.365,1.22h59.472c.728,0,1.34-.547,1.422-1.271l.819-7.289c.03-.27.048-.539.058-.807,0-.012,0-.025,0-.037.118-3.52-1.492-6.819-4.114-8.268l-3.979-2.2,2.529-1.075c.806-.343,1.347-1.287,1.347-2.35,0-1.542-1.001-2.793-2.236-2.793h-2.539c-.411,0-.814.135-1.17.391l-.775.558-2.64-8.954c-.879-2.982-3.154-4.962-5.697-4.962h-25.469c-2.544,0-4.818,1.981-5.697,4.962l-2.625,8.902-.703-.507c-.356-.256-.76-.391-1.17-.391h-2.539c-1.235,0-2.236,1.25-2.236,2.793,0,1.063.542,2.008,1.347,2.35l2.479,1.054-4.017,2.22c-2.622,1.449-4.232,4.748-4.114,8.268,0,.012,0,.025,0,.037.01.268.027.537.058.807ZM83.114,35.75c3.155,0,5.713,2.558,5.713,5.713s-2.558,5.714-5.713,5.714-5.714-2.558-5.714-5.714,2.558-5.713,5.714-5.713ZM44.841,20.534c.53-1.655,1.814-2.74,3.241-2.74h23.215c1.429,0,2.714,1.088,3.243,2.746l3.909,12.249h-37.535l3.927-12.255ZM36.025,35.75c3.156,0,5.714,2.558,5.714,5.713s-2.558,5.714-5.714,5.714-5.714-2.558-5.714-5.714,2.558-5.713,5.714-5.713Z"/><path class="d" d="M76.863,61.07h4.966c1.76,0,3.199-1.44,3.199-3.199v-4.406h-11.364v4.406c0,1.76,1.439,3.199,3.199,3.199Z"/><path class="d" d="M115.437,112.813v-7.454h-7.768V3.905h-8.796v59.183h-26.457c-.868,0-1.572.704-1.572,1.572,0,.629.375,1.198.954,1.445l27.075,11.578v27.676h-7.418v7.454h-2.627v2.251h29.237v-2.251h-2.627Z"/><path class="d" d="M46.171,63.088h-27.265V3.905h-8.796v101.454H2.692v7.454H.065v2.251h29.237v-2.251h-2.627v-7.454h-7.768v-27.33l27.883-11.923c.579-.247.954-.816.954-1.445,0-.868-.704-1.572-1.572-1.572Z"/><path class="d" d="M35.456,61.07h4.966c1.759,0,3.199-1.44,3.199-3.199v-4.406h-11.364v4.406c0,1.76,1.44,3.199,3.199,3.199Z"/></svg>