<?xml version="1.0" encoding="UTF-8"?><svg id="c" xmlns="http://www.w3.org/2000/svg" viewBox="0 0 118.129 118.968"><defs><style>.d{fill:#82bd48;}</style></defs><path class="d" d="M41.03,85.197c-.04-.512-.078-1.024-.078-1.546,0-1.971.297-3.871.831-5.668-6.556-1.761-13.735-.63-19.57,3.522l-12.922,9.195,2.411,7.027,14.641-10.418c4.38-3.118,9.849-3.786,14.686-2.111ZM60.831,100.422h0c9.447,0,17.106-7.659,17.106-17.106,0-6.668-3.823-12.43-9.39-15.252v-8.892h12.897v-3.434h-12.897v-7.574h12.897v-3.434h-12.897v-7.491h12.897v-3.434h-12.897v-7.491h12.897v-3.434h-12.897v-7.491h12.897v-3.434h-12.897v-3.754c0-4.262-3.455-7.717-7.717-7.717h0c-4.262,0-7.717,3.455-7.717,7.717v59.863c-5.566,2.822-9.389,8.584-9.389,15.252,0,1.772.269,3.48.769,5.087,2.166,6.963,8.661,12.019,16.337,12.019ZM60.058,73.732c5.02,0,9.089,4.07,9.089,9.089s-4.069,9.089-9.089,9.089-9.089-4.069-9.089-9.089,4.069-9.089,9.089-9.089ZM102.344,84.93c-5.983-5.826-14.459-7.812-22.175-5.814.341,1.459.54,2.972.54,4.534,0,.952-.09,1.88-.219,2.796,5.715-2.079,12.336-.841,16.885,3.588l8.579,8.352,2.884-7.134-6.493-6.322ZM71.602,107.92c-6.084,4.774-14.75,4.576-20.608-.481-8.16-7.043-19.997-7.598-28.781-1.348l-6.142,4.37,2.411,7.027,7.86-5.593c6.102-4.343,14.322-3.958,19.997.937,8.428,7.278,20.902,7.564,29.711.653,6.361-4.996,15.53-4.507,21.324,1.136l1.446,1.408,2.868-7.093c-8.363-7.548-21.112-8.062-30.086-1.015ZM78.981,91.733c-3.099,6.947-10.053,11.796-18.15,11.796-8.618,0-15.933-5.494-18.69-13.162-6.651-1.9-13.986-.797-19.927,3.431l-9.532,6.783,2.411,7.027,11.25-8.005c6.102-4.343,14.325-3.96,19.997.936,8.428,7.277,20.902,7.564,29.711.653,6.361-4.996,15.528-4.507,21.324,1.136l5.012,4.88,2.884-7.134-2.927-2.85c-6.291-6.124-15.343-8.025-23.363-5.489Z"/></svg>