<?xml version="1.0" encoding="UTF-8"?><svg id="c" xmlns="http://www.w3.org/2000/svg" viewBox="0 0 118.129 118.968"><defs><style>.d{fill:#82bd48;}</style></defs><path class="d" d="M42.316,40.819l-4.302-2.886,4.302,6.378s5.373-8.751,11.9-10.086c0,0-7.632-1.051-11.9,6.594ZM50.422,83.117c.805,2.228.7,4.516-.363,6.535-1.356,2.572-4.002,4.169-6.906,4.169-1.817,0-3.683-.634-5.393-1.832-.224-.157-.417-.351-.575-.575-2.055-2.932-2.403-6.208-.957-8.988,1.35-2.594,4.003-4.206,6.925-4.206,1.69,0,3.356.541,4.961,1.566.44-.18.919-.362,1.431-.537-.126-.11-.247-.225-.386-.321-1.892-1.296-3.969-1.982-6.006-1.982-3.398,0-6.484,1.875-8.055,4.892-1.673,3.216-1.292,6.973,1.045,10.308.243.346.541.644.886.887,1.927,1.35,4.044,2.063,6.125,2.063,3.379,0,6.456-1.858,8.033-4.849,1.295-2.457,1.372-5.239.299-7.909-.403.252-.756.522-1.063.78ZM42.316,86.767l-4.302-2.886,4.302,6.378s5.373-8.751,11.9-10.086c0,0-7.632-1.051-11.9,6.594ZM37.028,47.083c1.927,1.35,4.044,2.063,6.125,2.063,3.379,0,6.456-1.858,8.033-4.849,1.295-2.457,1.372-5.239.299-7.909-.403.252-.756.522-1.063.78.805,2.228.7,4.516-.363,6.535-1.356,2.572-4.002,4.169-6.906,4.169-1.817,0-3.683-.634-5.393-1.832-.224-.157-.417-.351-.575-.575-2.055-2.932-2.403-6.208-.957-8.988,1.35-2.594,4.003-4.206,6.925-4.206,1.69,0,3.356.541,4.961,1.566.44-.18.919-.362,1.431-.537-.126-.11-.247-.225-.386-.321-1.892-1.296-3.969-1.982-6.006-1.982-3.398,0-6.484,1.875-8.055,4.892-1.673,3.216-1.292,6.973,1.045,10.308.243.346.541.644.886.887ZM37.028,68.613c1.927,1.35,4.044,2.063,6.125,2.063,3.379,0,6.456-1.858,8.033-4.849,1.295-2.457,1.372-5.239.299-7.909-.403.252-.756.522-1.063.78.805,2.228.7,4.516-.363,6.535-1.356,2.572-4.002,4.169-6.906,4.169-1.817,0-3.683-.634-5.393-1.832-.224-.157-.417-.351-.575-.575-2.055-2.932-2.403-6.208-.957-8.988,1.35-2.594,4.003-4.206,6.925-4.206,1.69,0,3.356.54,4.961,1.566.44-.18.919-.362,1.431-.537-.126-.11-.247-.225-.386-.321-1.892-1.296-3.969-1.981-6.006-1.981-3.398,0-6.484,1.875-8.055,4.892-1.673,3.216-1.292,6.973,1.045,10.307.243.346.541.644.886.887ZM42.316,62.349l-4.302-2.886,4.302,6.378s5.373-8.751,11.9-10.086c0,0-7.632-1.051-11.9,6.594ZM57.885,39.92c0,.372.304.676.676.676h26.658c.372,0,.676-.304.676-.676s-.304-.676-.676-.676h-26.658c-.372,0-.676.304-.676.676ZM90.885,11.752h-14.653l.605-1.886c.273-.852-.363-1.724-1.258-1.724h-11.13c.006-.118.018-.235.018-.354,0-4.033-3.27-7.303-7.303-7.303s-7.303,3.27-7.303,7.303c0,.12.012.236.018.354h-11.129c-.996,0-1.634,1.061-1.166,1.941l.888,1.67h-11.228c-4.119,0-7.458,3.339-7.458,7.458v91.816c0,4.119,3.339,7.458,7.458,7.458h63.641c4.119,0,7.458-3.339,7.458-7.458V19.21c0-4.119-3.339-7.458-7.458-7.458ZM57.165,4.171c1.997,0,3.616,1.619,3.616,3.616s-1.619,3.616-3.616,3.616-3.616-1.619-3.616-3.616,1.619-3.616,3.616-3.616ZM91.737,105.888H26.392V17.561h15.168l1.904,3.581c.229.431.678.701,1.166.701h27.401c.574,0,1.082-.371,1.258-.917l1.079-3.364h17.368v88.327ZM85.219,42.958h-26.658c-.372,0-.676.304-.676.676s.304.676.676.676h26.658c.372,0,.676-.304.676-.676s-.304-.676-.676-.676ZM85.219,60.249h-26.658c-.372,0-.676.304-.676.676s.304.676.676.676h26.658c.372,0,.676-.304.676-.676s-.304-.676-.676-.676ZM85.219,87.303h-26.658c-.372,0-.676.304-.676.676s.304.676.676.676h26.658c.372,0,.676-.304.676-.676s-.304-.676-.676-.676ZM85.219,63.964h-26.658c-.372,0-.676.304-.676.676s.304.676.676.676h26.658c.372,0,.676-.304.676-.676s-.304-.676-.676-.676ZM85.219,91.018h-26.658c-.372,0-.676.304-.676.676s.304.676.676.676h26.658c.372,0,.676-.304.676-.676s-.304-.676-.676-.676Z"/></svg>