<?xml version="1.0" encoding="UTF-8"?><svg id="Layer_1" xmlns="http://www.w3.org/2000/svg" xmlns:xlink="http://www.w3.org/1999/xlink" viewBox="0 0 425.197 425.197"><defs><style>.cls-1{fill:url(#linear-gradient-4);}.cls-2{fill:url(#linear-gradient-3);}.cls-3{fill:url(#linear-gradient-2);}.cls-4{fill:url(#linear-gradient);}.cls-5{fill:#e6007e;}</style><linearGradient id="linear-gradient" x1="347.682" y1="64.854" x2="152.504" y2="402.91" gradientTransform="translate(0 428) scale(1 -1)" gradientUnits="userSpaceOnUse"><stop offset="0" stop-color="#7dbb5a"/><stop offset="1" stop-color="#6e7e85"/></linearGradient><linearGradient id="linear-gradient-2" x1="245.86" y1="6.067" x2="50.683" y2="344.123" gradientTransform="translate(0 428) scale(1 -1)" gradientUnits="userSpaceOnUse"><stop offset="0" stop-color="#7dbb5a"/><stop offset="1" stop-color="#6e7e85"/></linearGradient><linearGradient id="linear-gradient-3" x1="381.738" y1="84.516" x2="186.561" y2="422.572" gradientTransform="translate(0 428) scale(1 -1)" gradientUnits="userSpaceOnUse"><stop offset="0" stop-color="#7dbb5a"/><stop offset="1" stop-color="#6e7e85"/></linearGradient><linearGradient id="linear-gradient-4" x1="197.576" y1="-21.809" x2="2.399" y2="316.247" gradientTransform="translate(0 428) scale(1 -1)" gradientUnits="userSpaceOnUse"><stop offset="0" stop-color="#7dbb5a"/><stop offset="1" stop-color="#6e7e85"/></linearGradient></defs><path class="cls-5" d="M107.589,177.638l-65.24-51.06C74.089,62.278,140.319,18.058,216.879,18.058c49.07,0,93.89,18.16,128.11,48.14l-56.38,56.88c-19.54-15.74-44.25-25.14-71.13-25.14-50.78,0-93.84,33.54-108.92,80.01l-.97-.31h0Z"/><path class="cls-5" d="M216.879,407.139c-76.56,0-142.79-44.23-174.54-108.53l.01-.01,65.24-50.75h.01v.01c14.13,48.08,57.97,83.13,109.88,83.13,23.49,0,45.33-7.18,63.51-19.5l61.04,47.58.83.87c-10.78,10.17-21.08,17.63-29.32,22.92l-.61-1.05c-28.34,16.13-61.12,25.33-96.05,25.33h0Z"/><path class="cls-5" d="M309.999,281.658c5.52-10.28,8.75-19.98,10.7-27.99h-103.1v-76h180.69c2.18,9.89,4.33,23.25,4.55,39.14.16,11.1-.47,34.12-9.1,61.66-8.57,27.33-20.8,45.68-24.12,50.52-2.17,3.15-9.86,14.14-22.3,26.62-1.49,1.5-2.98,2.94-4.46,4.33l-.83-.87-61.04-47.58c0-.01.01-.01.01-.01,7.63-5.17,14.62-11.25,20.81-18.08l.65.45c2.53-3.57,5.09-7.63,7.54-12.19h0Z"/><path class="cls-5" d="M42.339,298.608c-12.81-25.93-20-55.13-20-86.01s7.2-60.09,20.01-86.02l65.24,51.06.97.31c-3.72,11.48-5.74,23.76-5.74,36.51,0,11.6,1.67,22.81,4.78,33.39h-.01l-65.24,50.75-.01.01Z"/><path class="cls-4" d="M107.589,177.638l-65.24-51.06C74.089,62.278,140.319,18.058,216.879,18.058c49.07,0,93.89,18.16,128.11,48.14l-56.38,56.88c-19.54-15.74-44.25-25.14-71.13-25.14-50.78,0-93.84,33.54-108.92,80.01l-.97-.31h0Z"/><path class="cls-3" d="M216.879,407.139c-76.56,0-142.79-44.23-174.54-108.53l.01-.01,65.24-50.75h.01v.01c14.13,48.08,57.97,83.13,109.88,83.13,23.49,0,45.33-7.18,63.51-19.5l61.04,47.58.83.87c-10.78,10.17-21.08,17.63-29.32,22.92l-.61-1.05c-28.34,16.13-61.12,25.33-96.05,25.33h0Z"/><path class="cls-2" d="M309.999,281.658c5.52-10.28,8.75-19.98,10.7-27.99h-103.1v-76h180.69c2.18,9.89,4.33,23.25,4.55,39.14.16,11.1-.47,34.12-9.1,61.66-8.57,27.33-20.8,45.68-24.12,50.52-2.17,3.15-9.86,14.14-22.3,26.62-1.49,1.5-2.98,2.94-4.46,4.33l-.83-.87-61.04-47.58c0-.01.01-.01.01-.01,7.63-5.17,14.62-11.25,20.81-18.08l.65.45c2.53-3.57,5.09-7.63,7.54-12.19h0Z"/><path class="cls-1" d="M42.339,298.608c-12.81-25.93-20-55.13-20-86.01s7.2-60.09,20.01-86.02l65.24,51.06.97.31c-3.72,11.48-5.74,23.76-5.74,36.51,0,11.6,1.67,22.81,4.78,33.39h-.01l-65.24,50.75-.01.01Z"/></svg>