<?xml version="1.0" encoding="UTF-8"?><svg id="a" xmlns="http://www.w3.org/2000/svg" viewBox="0 0 115 29"><defs><style>.b{fill:#fff;}</style></defs><path class="b" d="M26.076,25.759h-7.02v-8.674l-7.02-7.018V2.339h14.032l.008,23.419ZM2.677,25.759V2.339h7.012v8.691l7.02,7.018v7.702l-14.032.008ZM28.413,0H.34v28.098h28.073V0Z"/><path class="b" d="M50.325,9.491l-7.275,7.595h6.897v1.549h-10.716v-.033l7.276-7.587h-6.872v-1.549h10.699v.025h-.008Z"/><path class="b" d="M95.819,18.642l-6.724-4.737v4.737h-1.876v-9.177h1.876v4.415l6.535-4.415h2.889l-6.568,4.382,6.79,4.786h-2.922v.008Z"/><path class="b" d="M114.741,18.642l-5.094-3.427h.946c1.794,0,3.366-1.03,3.366-2.776v-.124c0-1.779-1.588-2.85-3.432-2.85h-7.465v9.168h1.877v-4.786l7.037,4.786h2.765v.008ZM104.931,11.023h5.629c.7,0,1.35.28,1.531.848.008.099.033.338.033.577,0,.247-.016.486-.033.577-.189.503-.831.807-1.531.807h-5.629v-2.809Z"/><path class="b" d="M65.548,17.011v1.631h-9.522v-9.177h9.522v1.631h-7.703v1.969h7.3v1.631h-7.3v2.307h7.703v.008Z"/><path class="b" d="M81.145,17.011v1.631h-9.522v-9.177h9.522v1.631h-7.703v1.969h7.3v1.631h-7.3v2.307h7.703v.008Z"/></svg>