<?xml version="1.0" encoding="UTF-8"?><svg id="c" xmlns="http://www.w3.org/2000/svg" xmlns:xlink="http://www.w3.org/1999/xlink" viewBox="0 0 200 75"><defs><style>.k{mask:url(#e);}.l{fill:#fff;}</style><mask id="e" x="35.235" y="24.624" width="129.53" height="26.155" maskUnits="userSpaceOnUse"><g id="f"><g id="g"><path id="h" class="l" d="M35.235,24.624h129.53v26.155H35.235v-26.155Z"/></g></g></mask></defs><g id="d"><g class="k"><g id="i"><path id="j" class="l" d="M64.454,25.094c-2.018-.037-10.773-.062-15.88-.062h-13.339v4.795c10.736,0,23.477-.025,29.057.062.996.012,1.98.112,2.765.81.735.648.984,1.669.66,2.553-.523,1.432-1.98,1.781-3.425,1.806-2.217.037-8.282.05-12.816.05-11.122.012-6.302,0-16.241,0v4.783c10.736,0,23.502-.025,29.057.062,1.731.025,3.562.623,3.562,2.566s-1.831,2.566-3.562,2.591c-5.542.087-18.321.062-29.057.062v4.795c10.773,0,24.872.037,29.219-.062,2.292-.05,5.692-.635,7.66-3.624,1.856-2.802,1.407-6.452-1.034-8.781,2.441-2.341,2.89-5.991,1.034-8.781-1.98-2.989-5.368-3.562-7.66-3.624ZM150.043,25.166c-2.84-.062-7.137-.1-10.923-.112-9.241-.037-3.687-.025-12.492-.025v4.808c9.378,0,15.942-.075,23.178.125,2.13.062,4.409.286,6.464,1.706,1.943,1.345,3.101,3.5,3.101,5.816s-1.121,4.471-3.064,5.829c-2.055,1.42-4.334,1.644-6.464,1.706-7.236.199-13.812.125-23.178.125l-.037,4.808c9.428,0,16.204.037,23.415-.137,2.89-.062,6.439-.399,9.727-2.753,3.114-2.229,4.994-5.729,4.994-9.59s-1.881-7.361-4.994-9.59v.037c-3.276-2.354-6.838-2.69-9.727-2.753ZM84.569,32.43c-.012-2.317,0-5.057,0-7.398h-5.542c0,2.366-.05,7.174.05,9.503.187,4.509,1.656,5.916,6.265,6.078,3.201.112,5.729.075,10.151.062v-4.832c-3.537,0-4.982,0-7.597-.037-2.516-.05-3.313-.872-3.325-3.375ZM105.069,35.842c2.591,0,5.754-.012,6.95-.037,2.516-.05,3.313-.847,3.325-3.288h.037v-7.485h5.53v7.274c-.012.847-.025,1.619-.05,2.229-.187,4.546-1.669,5.928-6.564,6.078-1.594.062-5.829.062-9.217.062h-.66v9.291h-6.514v-14.124h7.161Z"/></g></g></g></svg>