<?xml version="1.0" encoding="UTF-8"?><svg id="a" xmlns="http://www.w3.org/2000/svg" viewBox="0 0 300 113"><defs><style>.b{fill:#5bcc12;}.c{fill:#a7b3bb;}</style></defs><path class="c" d="M30.342,98.339l-.336,1.754h5.439l-.299,1.561h-5.44l-.515,2.686h6.251l-.3,1.561h-7.854l1.749-9.124h7.854l-.299,1.561h-6.251Z"/><path class="c" d="M46.204,96.805l-6.064,9.073h-.853l-2.586-9.073h1.767l1.784,6.261,4.184-6.261h1.768Z"/><path class="c" d="M53.452,99.287l-.127.615h-1.602l.131-.633c.003-.02.094-.478-.118-.749-.133-.171-.391-.259-.765-.259h-2.308c-.021-.001-.532-.029-.881.239-.226.173-.38.467-.458.874-.006.029-.109.492.098.758.128.165.376.249.742.249h2.36c.442.009,1.253.113,1.776.718.396.458.525,1.076.385,1.839-.027.226-.2,1.286-1.124,2.108-.656.583-1.493.879-2.489.879l-1.779-.002c-.031.003-.063.004-.098.004-.343,0-1.202-.067-1.768-.688-.439-.484-.583-1.161-.426-2.012l.117-.628h1.602l-.114.62c-.073.403-.03.697.132.876.263.291.789.27.795.27h1.838c.526-.001.932-.124,1.206-.368.414-.368.49-.962.49-.968l.004-.027c.07-.374.037-.62-.102-.782-.236-.274-.716-.277-.736-.277h-2.368c-.828,0-1.44-.25-1.819-.744-.579-.751-.343-1.761-.314-1.873.156-.827.558-1.497,1.189-1.978.9-.685,1.889-.661,2.102-.646h2.247c.833-.001,1.453.25,1.839.747.532.685.398,1.58.343,1.838Z"/><path class="c" d="M61.536,98.339l-.336,1.754h5.439l-.299,1.561h-5.44l-.515,2.686h6.251l-.3,1.561h-7.854l1.749-9.124h7.854l-.299,1.561h-6.251Z"/><path class="c" d="M75.557,104.34l-.3,1.561h-7.854l1.756-9.162h1.604l-1.457,7.601h6.251Z"/><path class="c" d="M79.039,98.339l-.336,1.754h5.439l-.299,1.561h-5.44l-.515,2.686h6.251l-.3,1.561h-7.854l1.749-9.124h7.854l-.299,1.561h-6.251Z"/><path class="c" d="M93.129,102.63l-.11.616c-.034.194-.25,1.2-1.11,1.931-.578.492-1.285.741-2.101.741l-1.806-.003c-.029.003-.061.004-.094.004-.314,0-1.392-.059-2.075-.82-.523-.581-.688-1.4-.489-2.435l.495-2.585c.199-1.034.677-1.854,1.423-2.435,1.126-.878,2.38-.826,2.52-.817l1.769-.002c.816,0,1.427.25,1.816.741.553.697.428,1.63.377,1.9l-.119.626h-1.599l.114-.62c.003-.021.094-.534-.139-.826-.136-.172-.388-.26-.749-.26h-1.82c-.134-.003-.788.002-1.292.396-.351.274-.586.71-.698,1.296l-.496,2.585c-.112.586-.044,1.022.201,1.296.374.417,1.08.397,1.086.397h.028s1.847-.001,1.847-.001c.361,0,.647-.088.849-.26.357-.302.455-.83.456-.836l.115-.631h1.6Z"/><path class="c" d="M102.214,96.777l-.299,1.561h-3.005l-1.454,7.582h-1.602l1.454-7.582h-3.005l.299-1.561h7.613Z"/><path class="c" d="M109.428,105.92h-1.891l-1.5-3.336-2.722-.008-.648,3.387h-1.604l1.76-9.185h4.879c.037-.002,1.265-.062,2.005.768.468.525.617,1.253.443,2.163-.165.861-.58,1.558-1.231,2.071-.318.251-.685.447-1.092.585l1.6,3.556ZM108.388,98.68c-.271-.306-.795-.338-.948-.342h-3.314s-.513,2.677-.513,2.677l3.158.01c.014-.001.757.019,1.26-.377.262-.206.435-.523.515-.939.089-.464.036-.81-.159-1.029Z"/><path class="c" d="M113.7,96.74l-1.754,9.155h-1.602l1.754-9.155h1.602Z"/><path class="c" d="M121.654,102.63l-.11.616c-.034.194-.25,1.2-1.11,1.931-.578.492-1.285.741-2.101.741l-1.806-.003c-.029.003-.061.004-.094.004-.314,0-1.392-.059-2.075-.82-.523-.581-.688-1.4-.489-2.435l.495-2.585c.199-1.034.677-1.854,1.423-2.435,1.126-.878,2.38-.826,2.52-.817l1.769-.002c.816,0,1.427.25,1.816.741.553.697.428,1.63.377,1.9l-.119.626h-1.599l.114-.62c.003-.021.094-.534-.139-.826-.136-.172-.388-.26-.749-.26h-1.82c-.134-.003-.788.002-1.293.396-.35.274-.585.71-.697,1.296l-.496,2.585c-.112.586-.044,1.022.201,1.296.374.417,1.08.397,1.086.397h.028s1.847-.001,1.847-.001c.361,0,.647-.088.849-.26.357-.302.455-.83.456-.836l.115-.631h1.6Z"/><path class="c" d="M137.321,96.805l-6.064,9.073h-.853l-2.586-9.073h1.767l1.784,6.261,4.184-6.261h1.768Z"/><path class="c" d="M138.867,98.339l-.336,1.754h5.439l-.299,1.561h-5.44l-.515,2.686h6.251l-.3,1.561h-7.854l1.749-9.124h7.854l-.299,1.561h-6.251Z"/><path class="c" d="M154.504,96.74l-1.754,9.155h-1.604l.813-4.24h-4.808l-.813,4.24h-1.602l1.754-9.155h1.602l-.641,3.354h4.807l.643-3.354h1.604Z"/><path class="c" d="M157.593,96.74l-1.754,9.155h-1.602l1.754-9.155h1.602Z"/><path class="c" d="M165.547,102.63l-.11.616c-.034.194-.25,1.2-1.11,1.931-.578.492-1.285.741-2.101.741l-1.806-.003c-.029.003-.061.004-.094.004-.314,0-1.392-.059-2.075-.82-.523-.581-.688-1.4-.489-2.435l.495-2.585c.199-1.034.677-1.854,1.423-2.435,1.126-.878,2.38-.826,2.52-.817l1.769-.002c.816,0,1.427.25,1.816.741.553.697.428,1.63.377,1.9l-.119.626h-1.599l.114-.62c.003-.021.094-.534-.139-.826-.136-.172-.388-.26-.749-.26h-1.82c-.134-.003-.788.002-1.292.396-.351.274-.586.71-.698,1.296l-.496,2.585c-.112.586-.044,1.022.201,1.296.374.417,1.08.397,1.086.397h.028s1.847-.001,1.847-.001c.361,0,.647-.088.849-.26.357-.302.455-.83.456-.836l.115-.631h1.6Z"/><path class="c" d="M174.304,104.34l-.3,1.561h-7.854l1.756-9.162h1.604l-1.457,7.601h6.251Z"/><path class="c" d="M177.786,98.339l-.336,1.754h5.439l-.299,1.561h-5.44l-.515,2.686h6.251l-.3,1.561h-7.854l1.749-9.124h7.854l-.299,1.561h-6.251Z"/><path class="c" d="M197.481,99.287l-.127.615h-1.602l.131-.633c.003-.02.094-.478-.118-.749-.133-.171-.391-.259-.765-.259h-2.308c-.021-.001-.532-.029-.881.239-.226.173-.38.467-.458.874-.006.029-.109.492.098.758.128.165.376.249.742.249h2.36c.442.009,1.253.113,1.776.718.396.458.525,1.076.385,1.839-.027.226-.2,1.286-1.124,2.108-.656.583-1.494.879-2.489.879l-1.779-.002c-.031.003-.063.004-.098.004-.343,0-1.202-.067-1.768-.688-.439-.484-.583-1.161-.426-2.012l.117-.628h1.602l-.114.62c-.073.403-.03.697.132.876.263.291.789.27.795.27h1.838c.526-.001.932-.124,1.206-.368.414-.368.49-.962.49-.968l.004-.027c.07-.374.037-.62-.102-.782-.236-.274-.716-.277-.736-.277h-2.368c-.828,0-1.44-.25-1.819-.744-.579-.751-.343-1.761-.314-1.873.156-.827.558-1.497,1.189-1.978.899-.685,1.889-.661,2.102-.646h2.247c.833-.001,1.453.25,1.839.747.532.685.398,1.58.343,1.838Z"/><path class="c" d="M200.494,98.339l-.336,1.754h5.439l-.299,1.561h-5.44l-.515,2.686h6.251l-.3,1.561h-7.854l1.749-9.124h7.854l-.299,1.561h-6.251Z"/><path class="c" d="M214.718,105.92h-1.891l-1.5-3.336-2.722-.008-.648,3.387h-1.604l1.76-9.185h4.879c.037-.002,1.265-.062,2.005.768.468.525.617,1.253.443,2.163-.165.861-.58,1.558-1.231,2.071-.318.251-.685.447-1.092.585l1.6,3.556ZM213.678,98.68c-.271-.306-.795-.338-.948-.342h-3.314s-.513,2.677-.513,2.677l3.158.01c.014-.001.757.019,1.26-.377.262-.206.435-.523.515-.939.089-.464.036-.81-.159-1.029Z"/><path class="c" d="M225.626,96.805l-6.064,9.073h-.853l-2.586-9.073h1.768l1.783,6.261,4.184-6.261h1.768Z"/><path class="c" d="M227.477,96.74l-1.754,9.155h-1.602l1.754-9.155h1.602Z"/><path class="c" d="M235.43,102.63l-.11.616c-.034.194-.25,1.2-1.11,1.931-.578.492-1.285.741-2.101.741l-1.806-.003c-.029.003-.061.004-.094.004-.314,0-1.392-.059-2.075-.82-.523-.581-.688-1.4-.489-2.435l.495-2.585c.199-1.034.677-1.854,1.423-2.435,1.126-.878,2.38-.826,2.52-.817l1.769-.002c.816,0,1.427.25,1.816.741.553.697.428,1.63.377,1.9l-.119.626h-1.599l.114-.62c.003-.021.094-.534-.139-.826-.136-.172-.388-.26-.749-.26h-1.82c-.134-.003-.788.002-1.293.396-.35.274-.585.71-.697,1.296l-.496,2.585c-.112.586-.044,1.022.201,1.296.374.417,1.08.397,1.086.397h.028s1.847-.001,1.847-.001c.361,0,.647-.088.849-.26.357-.302.455-.83.456-.836l.115-.631h1.6Z"/><path class="c" d="M239.087,98.339l-.336,1.754h5.439l-.299,1.561h-5.44l-.515,2.686h6.251l-.3,1.561h-7.854l1.749-9.124h7.854l-.299,1.561h-6.251Z"/><path class="c" d="M253.711,99.287l-.127.615h-1.602l.131-.633c.003-.02.094-.478-.118-.749-.133-.171-.391-.259-.765-.259h-2.308c-.021-.001-.532-.029-.881.239-.226.173-.38.467-.458.874-.006.029-.109.492.098.758.128.165.376.249.742.249h2.36c.442.009,1.253.113,1.776.718.396.458.525,1.076.385,1.839-.027.226-.2,1.286-1.124,2.108-.656.583-1.494.879-2.489.879l-1.779-.002c-.031.003-.063.004-.098.004-.343,0-1.202-.067-1.768-.688-.439-.484-.583-1.161-.426-2.012l.117-.628h1.602l-.114.62c-.073.403-.03.697.132.876.263.291.789.27.795.27h1.838c.526-.001.932-.124,1.206-.368.414-.368.49-.962.49-.968l.004-.027c.07-.374.037-.62-.102-.782-.236-.274-.716-.277-.736-.277h-2.368c-.828,0-1.44-.25-1.819-.744-.579-.751-.343-1.761-.314-1.873.156-.827.558-1.497,1.189-1.978.899-.685,1.889-.661,2.102-.646h2.247c.833-.001,1.453.25,1.839.747.532.685.398,1.58.343,1.838Z"/><path class="c" d="M271.159,78.709c1.03,1.023,1.552,2.273,1.552,3.763,0,1.434-.508,2.684-1.524,3.72-1.032,1.036-2.273,1.562-3.728,1.562-1.425,0-2.652-.511-3.684-1.548-1.044-1.022-1.566-2.272-1.566-3.734,0-1.448.508-2.698,1.538-3.734,1.018-1.036,2.259-1.548,3.712-1.548,1.427,0,2.654.511,3.7,1.519ZM264.397,85.525c.833.866,1.863,1.292,3.062,1.292,1.172,0,2.174-.426,3.035-1.264s1.285-1.86,1.285-3.081c0-1.207-.424-2.23-1.271-3.081-.847-.837-1.863-1.264-3.063-1.264-1.157,0-2.158.426-3.02,1.264s-1.285,1.874-1.285,3.081c0,1.178.424,2.201,1.257,3.053ZM267.812,79.419c1.341,0,2.062.625,2.062,1.817,0,.952-.508,1.534-1.425,1.662l1.552,2.556h-1.157l-1.497-2.47h-.805v2.47h-1.1v-6.035h2.371ZM266.541,82.046h.947c.889,0,1.283-.227,1.283-.852,0-.554-.323-.837-1.297-.837h-.933v1.689Z"/><path class="b" d="M33.128,68.061l-1.756,8.812c-.551,2.847.365,5.862,2.538,8.187,2.05,2.194,5.014,2.703,7.944,2.742h55.986c4.837.067,8.993-1.519,9.89-5.976,1.189-5.909,2.699-13.764,2.699-13.764H33.128Z"/><path class="c" d="M170.541,37.521c-7.037-.094-9.297,1.916-13.207,9.051-3.519,6.421-12.055,22.095-12.055,22.095-1.448,3.049-6.423,1.949-5.713-1.25l9.554-48.745c.448-4.068-.329-11.442-9.571-11.564l-9.745-.051-12.571,64.568c-2.82,14.804,4.555,16.177,14.524,16.177h13.197c11.656.155,13.991-2.516,17.603-9.174l22.292-41.101-14.307-.005Z"/><path class="b" d="M34.381,61.664h24.071l.316-1.657c.331-1.501,1.706-2.839,3.344-2.817l42.542-.011c4.461.059,8.448-2.804,9.261-6.92l2.494-12.733H39.106l-4.725,24.138Z"/><path class="c" d="M253.432,37.526h-60.56s-3.106,5.436-3.955,7.353c-1.286,2.904-1.933,12.321,9.602,12.321h39.605c6.261,0,5.093,10.861-2.721,10.861h-35.408s-1.337-.07-1.795-.489c-1.779-1.63-.323-3.996-.323-3.996h-8.127c-5.208-.069-9.496,2.922-12.64,8.008l-8.787,16.217h74.902c5.791.074,11.623-2.527,12.958-8.033,1.796-7.403,5.977-29.93,5.977-29.93.802-3.966.432-6.058-1.399-8.478-1.693-2.239-4.357-3.796-7.328-3.835Z"/><path class="b" d="M187.507,7.057c-6.028-.078-10.238,2.69-13.677,9.064l-5.169,9.377c-1.238,2.716.506,5.653,3.571,5.694h16.052l1.086-1.972c1.535-2.803,2.542-2.447,7.365-2.447l40.912.007c1.018.013,5.791-.05,4.548,4.39l9.505.078c5.444.072,10.435-3.449,12.243-8.417l6.41-15.774h-82.846Z"/><path class="b" d="M64.712,29.667c.332-1.501,1.617-2.947,3.254-2.926h42.877c4.466.059,7.95-1.913,8.758-6.035l2.77-13.649-66.87-.019c-6.053-.08-11.134,3.655-12.256,9.296l-2.9,14.859h24.071l.296-1.525Z"/></svg>