<?xml version="1.0" encoding="UTF-8"?>
<svg id="Layer_1" xmlns="http://www.w3.org/2000/svg" version="1.1" viewBox="0 0 70.9 70.9">
  <!-- Generator: Adobe Illustrator 29.4.0, SVG Export Plug-In . SVG Version: 2.1.0 Build 152)  -->
  <defs>
    <style>
      .st0 {
        fill: #909da2;
      }

      .st1 {
        fill: #7dbb5a;
      }

      .st2 {
        fill: #81bb47;
      }
    </style>
  </defs>
  <polygon class="st1" points="3.2 32.2 0 38 0 38 12.7 38 17.3 32.2 3.2 32.2"/>
  <polygon class="st1" points="3.5 22.3 .4 28.1 .4 28.1 13.1 28.1 17 22.3 3.5 22.3"/>
  <polygon class="st1" points="3.2 42.1 0 47.9 0 48 12.7 48 17.3 42.1 3.2 42.1"/>
  <path class="st2" d="M46.8,30.5s0,0,0,0c0-.8.6-1.4,1.4-1.4h17.4l4.7-6.8h-24.3c-4.5,0-8.1,3.6-8.1,8.1s0,0,0,.1h8.9Z"/>
  <path class="st1" d="M46.8,30.5s0,0,0,0c0-.8.6-1.4,1.4-1.4h17.4l4.7-6.8h-24.3c-4.5,0-8.1,3.6-8.1,8.1s0,0,0,.1h8.9Z"/>
  <path class="st0" d="M29.3,46.7c1.6,2.3,5,2.2,6.7,0l10.5-15h-9.1l-4.9,6.5-11.5-16.2-4.3,6.8h0l12.6,18h0ZM62,38.1c.8,0,1.5.6,1.5,1.4s-.6,1.4-1.4,1.4h-19.6l-4.7,6.8h25.1c4.5,0,8.1-3.6,8.1-8.1s-3.6-8.1-8.1-8.1h-13.9l-4,6.7h17.2c0,0,0,0,0,0Z"/>
</svg>