<?xml version="1.0" encoding="UTF-8"?><svg id="a" xmlns="http://www.w3.org/2000/svg" xmlns:xlink="http://www.w3.org/1999/xlink" viewBox="0 0 12 12"><defs><style>.d{mask:url(#b);}.e{fill-rule:evenodd;}.e,.f{fill:#fff;}</style><mask id="b" x="0" y=".404" width="12" height="9.809" maskUnits="userSpaceOnUse"><g id="c"><path class="f" d="M0,.404h12v9.809H0V.404Z"/></g></mask></defs><g class="d"><path class="e" d="M3.771,1.382l2.111,6.869-2.111.981V1.382ZM8.187.924l-2.171,7.094L3.841.924h4.346ZM8.261,9.232l-2.111-.981,2.111-6.869v7.851ZM4.109,9.278l1.907-.858,1.907.858h-3.813ZM3.69,9.486h4.652c.084,0,.127-.042.127-.127V.844c0-.084-.042-.127-.127-.127H3.69c-.085,0-.127.042-.127.127v8.515c0,.084.042.127.127.127Z"/></g><path class="e" d="M1.203,10.191L.104,11.283h.17c.078,0,.153-.031.208-.086l.743-.739c.015-.015.036-.024.058-.024s.042.009.058.024l.744.739c.055.055.13.086.208.086h.17l-1.099-1.092c-.021-.021-.05-.033-.081-.033s-.059.012-.081.033M4.654,10.157c-.078,0-.153.031-.208.086l-.743.739c-.015.015-.036.024-.058.024s-.042-.009-.058-.024l-.744-.739c-.055-.055-.13-.086-.208-.086h-.17l1.099,1.093c.045.044.116.044.161,0l1.099-1.093h-.17ZM8.35,10.58h-.102c-.007,0-.014.001-.02.004-.006.003-.012.006-.017.011-.005.005-.009.011-.011.017-.003.006-.004.013-.004.02v.598c0,.029.024.052.053.052h.102c.007,0,.014-.001.02-.004.006-.003.012-.006.017-.011.005-.005.009-.011.011-.017.003-.006.004-.013.004-.02v-.598c0-.007-.001-.014-.004-.02-.003-.006-.007-.012-.011-.017-.005-.005-.011-.009-.017-.011-.006-.003-.013-.004-.02-.004ZM9.294,10.243c-.056-.055-.131-.086-.209-.086h-1.902l.12.119c.055.055.13.086.209.086h1.902l-.12-.119ZM5.923,10.191l-1.099,1.093h.17c.078,0,.153-.031.208-.086l.744-.739c.015-.015.036-.024.058-.024s.042.009.058.024l.743.739c.055.055.13.086.208.086h.17l-1.099-1.092c-.021-.021-.05-.033-.081-.033s-.059.012-.081.033ZM11.403,10.796h.17c.043,0,.086-.008.126-.025.04-.017.076-.042.106-.073.03-.031.054-.068.069-.109.015-.041.023-.084.021-.127-.008-.172-.157-.305-.33-.305h-1.695l.121.119c.056.055.131.086.209.086h1.367c.061,0,.115.044.12.104.001.016,0,.032-.006.047-.005.015-.013.029-.024.041-.011.012-.024.021-.038.027-.015.006-.03.01-.046.01h-1.649c-.007,0-.014.001-.02.004-.006.003-.012.007-.017.011-.005.005-.009.011-.011.017-.003.006-.004.013-.004.02v.587c0,.029.024.052.053.052h.102c.014,0,.027-.005.037-.015.01-.01.016-.023.016-.037v-.435h1.033l.405.401c.056.055.131.087.21.087h.171l-.493-.487Z"/></svg>