<?xml version="1.0" encoding="UTF-8"?><svg id="a" xmlns="http://www.w3.org/2000/svg" xmlns:xlink="http://www.w3.org/1999/xlink" viewBox="0 0 1920 480"><defs><style>.i{mask:url(#c);}.j{fill:#fff;}</style><mask id="c" x="60" y="61.074" width="1800" height="363.462" maskUnits="userSpaceOnUse"><g id="d"><g id="e"><path id="f" class="j" d="M60,61.074h1800v363.462H60V61.074Z"/></g></g></mask></defs><g id="b"><g class="i"><g id="g"><path id="h" class="j" d="M466.038,67.599c-28.038-.519-149.712-.865-220.673-.865H60v66.635c149.192,0,326.25-.346,403.788.865,13.846.173,27.519,1.558,38.423,11.25,10.212,9,13.673,23.192,9.173,35.481-7.269,19.904-27.519,24.75-47.596,25.096-30.808.519-115.096.692-178.096.692-154.558.173-87.577,0-225.692,0v66.462c149.192,0,326.596-.346,403.788.865,24.058.346,49.5,8.654,49.5,35.654s-25.442,35.654-49.5,36c-77.019,1.212-254.596.865-403.788.865v66.635c149.712,0,345.635.519,406.038-.865,31.846-.692,79.096-8.827,106.442-50.365,25.788-38.942,19.558-89.654-14.365-122.019,33.923-32.538,40.154-83.25,14.365-122.019-27.519-41.538-74.596-49.5-106.442-50.365ZM1655.423,68.603c-39.462-.865-99.173-1.385-151.788-1.558-128.423-.519-51.231-.346-173.596-.346v66.808c130.327,0,221.539-1.038,322.096,1.731,29.596.865,61.269,3.981,89.827,23.712,27,18.692,43.096,48.635,43.096,80.827s-15.577,62.135-42.577,81c-28.558,19.731-60.231,22.846-89.827,23.712-100.558,2.769-191.942,1.731-322.096,1.731l-.519,66.808c131.019,0,225.173.519,325.385-1.904,40.154-.865,89.481-5.538,135.173-38.25,43.269-30.981,69.404-79.615,69.404-133.269s-26.135-102.288-69.404-133.269v.519c-45.519-32.712-95.019-37.385-135.173-38.25ZM745.558,169.541c-.173-32.192,0-70.269,0-102.808h-77.019c0,32.885-.692,99.692.692,132.058,2.596,62.654,23.019,82.212,87.058,84.462,44.481,1.558,79.615,1.038,141.058.865v-67.154c-49.154,0-69.231,0-105.577-.519-34.962-.692-46.038-12.115-46.212-46.904ZM1030.442,216.964c36,0,79.962-.173,96.577-.519,34.962-.692,46.039-11.769,46.212-45.692h.519v-104.019h76.846v101.077c-.173,11.769-.346,22.5-.692,30.981-2.596,63.173-23.192,82.385-91.212,84.462-22.154.865-81,.865-128.077.865h-9.173v129.115h-90.519v-196.269h99.519Z"/></g></g></g></svg>