<?xml version="1.0" encoding="UTF-8"?>
<svg id="_图层_1" data-name="图层 1" xmlns="http://www.w3.org/2000/svg" viewBox="0 0 567.53 100">
  <defs>
    <style>
      .cls-1 {
        fill: #fff;
        stroke-width: 0px;
      }
    </style>
  </defs>
  <polygon class="cls-1" points="0 100 41.7 100 41.7 41.69 166.67 41.69 166.67 0 0 0 0 100"/>
  <rect class="cls-1" x="58.33" y="58.33" width="108.33" height="41.67"/>
  <path class="cls-1" d="M208.34,23.45v76.55h15.62V23.45c0-4.31,3.5-7.81,7.81-7.81h67.48V.02h-67.48c-12.92,0-23.43,10.51-23.43,23.43Z"/>
  <path class="cls-1" d="M409.76.02h-73.42c-11.2,0-20.31,9.11-20.31,20.31v59.36c0,11.2,9.11,20.31,20.31,20.31h73.42c11.2,0,20.31-9.11,20.31-20.31V20.33C430.07,9.13,420.96.02,409.76.02ZM414.45,79.69c0,2.58-2.1,4.69-4.69,4.69h-73.42c-2.58,0-4.69-2.1-4.69-4.69V20.33c0-2.58,2.1-4.69,4.69-4.69h73.42c2.58,0,4.69,2.1,4.69,4.69v59.36Z"/>
  <polygon class="cls-1" points="517.46 49.93 567.37 .02 545.28 .02 506.41 38.88 467.55 .02 445.46 .02 495.37 49.93 445.3 100 467.39 100 506.41 60.98 545.43 100 567.53 100 517.46 49.93"/>
</svg>