<?xml version="1.0" encoding="UTF-8"?><svg id="Layer_1" xmlns="http://www.w3.org/2000/svg" viewBox="0 0 256 256"><defs><style>.cls-1{fill:#fff;}.cls-1,.cls-2{fill-rule:evenodd;}.cls-2{fill:#7dbb5a;}</style></defs><path class="cls-2" d="M128.003,250.024c67.212,0,122.022-54.814,122.022-122.026S195.215,5.976,128.003,5.976,5.975,60.792,5.975,127.998s54.815,122.026,122.027,122.026Z"/><path class="cls-1" d="M160.494,143.772c-1.78-.976-10.501-5.679-12.137-6.342-1.636-.665-2.826-1.014-4.099.75-1.273,1.764-4.893,5.706-5.991,6.871-2.081,2.209-6.135-.696-8.404-1.958-2.613-1.457-6.032-3.695-9.735-7.253-5.194-4.994-8.602-11.048-9.589-12.898-1.509-2.822,3.773-6.124,5.397-9.139.087-.169.184-.343.287-.532.644-1.187.382-2.249-.036-3.174-.42-.916-3.701-9.953-5.071-13.628-1.738-4.664-9.432-4.29-12.32-1.365-1.723,1.742-6.557,5.94-6.891,14.84-.332,8.894,5.823,17.733,6.682,18.975.859,1.237,11.753,20.524,29.859,28.452,10.716,4.689,19.259,9.033,29.579,2.02,2.029-1.38,3.776-3.068,4.478-4.826,1.667-4.16,1.8-7.78,1.374-8.552-.424-.772-1.61-1.273-3.383-2.24Z"/><path class="cls-1" d="M177.639,78.07c-13.174-13.19-30.691-20.454-49.36-20.459-38.462,0-69.764,31.29-69.778,69.753-.005,12.294,3.205,24.297,9.315,34.874l-9.903,36.152,36.995-9.702c10.189,5.556,21.666,8.485,33.346,8.49h.025c.005,0,0,0,0,0,38.462,0,69.767-31.296,69.783-69.758.004-18.638-7.244-36.167-20.423-49.349h0ZM128.279,185.394h-.02c-10.409-.005-20.618-2.797-29.523-8.083l-2.115-1.252-21.951,5.756,5.857-21.399-1.38-2.193c-5.807-9.232-8.869-19.9-8.869-30.856.014-31.97,26.035-57.975,58.025-57.975,15.489.005,30.053,6.043,41.003,17.002,10.95,10.961,16.977,25.525,16.972,41.018-.011,31.97-26.03,57.98-58.001,57.98Z"/></svg>