<?xml version="1.0" encoding="UTF-8"?><svg id="a" xmlns="http://www.w3.org/2000/svg" viewBox="0 0 512 512"><defs><style>.c{fill:#fff;}</style></defs><g id="b"><path class="c" d="M429.017,82.918c-94.564-95.508-248.648-96.273-344.155-1.709C9.678,155.651-8.794,270.14,39.163,364.449l-25.821,125.358c-.542,2.522-.008,5.156,1.472,7.269,2.196,3.248,6.176,4.794,9.989,3.88l122.861-29.121c120.334,59.81,266.369,10.747,326.179-109.587,46.285-93.122,28.273-205.367-44.827-279.33h0ZM390.709,388.665c-57.928,57.765-146.258,72.122-219.499,35.676l-17.125-8.473-75.322,17.838.223-.937,15.608-75.812-8.384-16.545c-37.439-73.529-23.29-162.801,35.052-221.149,74.412-74.389,195.034-74.389,269.446,0,.304.349.632.677.981.981,73.462,74.552,73.024,194.407-.981,268.42Z"/><path class="c" d="M384.02,333.054c-9.231,14.538-23.814,32.332-42.143,36.747-32.109,7.76-81.387.268-142.706-56.904l-.758-.669c-53.916-49.992-67.919-91.599-64.53-124.6,1.873-18.73,17.481-35.676,30.637-46.736,7.362-6.284,18.425-5.409,24.708,1.953,1.113,1.304,2.029,2.765,2.718,4.335l19.845,44.595c2.628,5.892,1.787,12.754-2.185,17.838l-10.034,13.022c-4.405,5.501-5.023,13.127-1.561,19.265,5.619,9.856,19.087,24.349,34.026,37.772,16.768,15.162,35.364,29.032,47.137,33.759,6.445,2.633,13.844,1.079,18.686-3.924l11.639-11.729c4.572-4.509,11.215-6.212,17.392-4.46l47.137,13.379c9.419,2.889,14.712,12.867,11.822,22.285-.438,1.428-1.054,2.796-1.833,4.071h0Z"/></g></svg>