<?xml version="1.0" encoding="UTF-8"?><svg id="c" xmlns="http://www.w3.org/2000/svg" viewBox="0 0 200 75"><defs><style>.d{fill:#fff;}</style></defs><path class="d" d="M56.456,45.998h13.885c1.863-.402,3.325-1.716,3.792-3.409h-21.416c.458,1.68,1.896,2.991,3.738,3.409Z"/><path class="d" d="M56.456,39.131h13.885c1.863-.402,3.325-1.716,3.792-3.409h-21.416c.458,1.68,1.896,2.991,3.738,3.409h0Z"/><path class="d" d="M56.456,32.411h13.885c1.863-.402,3.325-1.716,3.792-3.409h-21.416c.458,1.68,1.896,2.991,3.738,3.409h0Z"/><path class="d" d="M166.724,32.411h13.92c1.847-.418,3.289-1.729,3.748-3.409h-21.416c.459,1.68,1.901,2.991,3.748,3.409Z"/><path class="d" d="M162.976,45.998h3.776v-6.818h13.864v6.818h3.776v-10.227h-21.416v10.227Z"/><path class="d" d="M106.222,32.362c1.923-.487,3.525-1.851,3.952-3.36h-20.348v10.081h16.609v3.506h-13.031c-1.775.616-2.754,1.561-3.578,3.409h20.241v-10.227h-16.663v-3.409h12.817Z"/><path class="d" d="M125.867,29.002v16.997h17.962c1.728-.553,3.021-1.792,3.454-3.312h-17.443v-13.685h-3.972Z"/><path class="d" d="M15.608,29.05c.427,1.674,1.734,2.933,3.407,3.36h5.257s.341.146.341.146v13.441h3.31v-13.441s.341-.146.341-.146h5.354c1.668-.437,2.971-1.74,3.407-3.409H15.608v.049Z"/></svg>