<?xml version="1.0" encoding="UTF-8"?>
<svg id="Layer_1" xmlns="http://www.w3.org/2000/svg" version="1.1" viewBox="0 0 400 150">
  <!-- Generator: Adobe Illustrator 29.4.0, SVG Export Plug-In . SVG Version: 2.1.0 Build 152)  -->
  <defs>
    <style>
      .st0 {
        fill: #909da2;
      }

      .st1 {
        fill: #7dbb5a;
      }

      .st2 {
        fill: #81bb47;
      }
    </style>
  </defs>
  <polygon class="st1" points="19.4 56.7 1.5 89.3 1.5 89.6 72.9 89.6 98.6 56.7 19.4 56.7"/>
  <polygon class="st1" points="21.4 1.3 3.5 33.8 3.5 34.1 74.9 34.1 96.5 1.3 21.4 1.3"/>
  <polygon class="st1" points="19.4 112.5 1.5 145 1.5 145.3 72.9 145.3 98.6 112.5 19.4 112.5"/>
  <path class="st2" d="M263.8,47.2c0,0,0-.1,0-.2,0-4.5,3.6-8.1,8.1-8.1h97.3L395.4.8h-136c-25.2,0-45.6,20.4-45.6,45.6s0,.5,0,.8h50Z"/>
  <path class="st1" d="M263.8,47.2c0,0,0-.1,0-.2,0-4.5,3.6-8.1,8.1-8.1h97.3L395.4.8h-136c-25.2,0-45.6,20.4-45.6,45.6s0,.5,0,.8h50Z"/>
  <path class="st0" d="M165.8,139.8c9,12.9,28.2,12.4,37.3-.5l58.7-84h-50.7l-27.5,36.1L119.2.8l-23.9,38h0l70.5,101.1h0ZM348.7,91.7c4.5,0,8.1,3.6,8.1,8.1s-3.6,8.1-8.1,8.1h-110l-26.2,38.1h140.3c25.2,0,45.6-20.4,45.6-45.6s-20.4-45.6-45.6-45.6h-78.1l-22.6,37.3,96.5-.4h0Z"/>
</svg>