<?xml version="1.0" encoding="UTF-8"?><svg id="c" xmlns="http://www.w3.org/2000/svg" viewBox="0 0 118.129 118.968"><defs><style>.d{fill:#82bd48;}</style></defs><path class="d" d="M110.222,61.033l7.907-7.907-3.624-22.403-8.319-8.319-10.46-10.46-8.319-8.319-22.403-3.624h0l-5.376,5.376h0l-2.531,2.531,53.126,53.125ZM92.926,49.85l-8.223-7.893c-2.426-3.338-5.43-6.227-8.871-8.515l-12.108-11.622c-1.049,1.814-2.988,3.049-5.235,3.049-3.352,0-6.069-2.717-6.069-6.069,0-2.157,1.133-4.039,2.828-5.115l-7.684-7.376C20.595,10.679,0,34.063,0,62.267c0,31.315,25.386,56.702,56.702,56.702,29.001,0,52.901-21.778,56.277-49.87l-18.075-17.35c-.783-.464-1.461-1.104-1.978-1.899ZM33.058,18.947c2.893-1.693,6.61-.722,8.304,2.171,1.694,2.892.722,6.61-2.171,8.304-2.892,1.694-6.61.722-8.304-2.171-1.694-2.893-.722-6.61,2.171-8.304ZM14.565,36.526c1.678-2.901,5.391-3.893,8.292-2.215,2.901,1.678,3.893,5.391,2.215,8.292-1.678,2.901-5.391,3.893-8.292,2.215s-3.893-5.391-2.215-8.292ZM7.188,64.239c-.193-3.346,2.364-6.215,5.71-6.408,3.346-.192,6.215,2.364,6.408,5.711.193,3.346-2.364,6.215-5.71,6.408-3.346.192-6.215-2.364-6.408-5.711ZM24.747,92.696c-2.69,2-6.492,1.44-8.492-1.249-2-2.69-1.441-6.492,1.249-8.491,2.69-2,6.492-1.441,8.492,1.249,2,2.69,1.441,6.492-1.249,8.492ZM46.564,105.57c-1.148,3.149-4.632,4.771-7.781,3.623-3.149-1.148-4.771-4.632-3.623-7.781,1.148-3.149,4.632-4.771,7.781-3.623,3.149,1.148,4.771,4.632,3.623,7.781ZM67.358,111.639c-3.262.772-6.532-1.247-7.303-4.509-.771-3.262,1.247-6.532,4.509-7.303,3.262-.772,6.532,1.247,7.303,4.509.772,3.262-1.247,6.531-4.509,7.303ZM56.702,94.146c-9.904,0-18.753-4.516-24.6-11.601-4.548-5.511-7.28-12.576-7.28-20.278,0-1.1.056-2.188.165-3.259.109-1.072.271-2.128.483-3.165.106-.519.225-1.033.356-1.542,1.572-6.112,4.912-11.514,9.441-15.631,3.397-3.087,7.463-5.451,11.955-6.848,2.995-.931,6.179-1.433,9.48-1.433s6.485.502,9.48,1.433c.499.155.993.322,1.481.501.976.358,1.931.761,2.86,1.209,2.787,1.343,5.349,3.08,7.614,5.138,4.529,4.117,7.868,9.519,9.441,15.631.131.509.25,1.024.356,1.542.212,1.038.374,2.094.483,3.165.109,1.072.165,2.159.165,3.259,0,7.703-2.732,14.768-7.28,20.278-5.847,7.085-14.696,11.601-24.6,11.601ZM92.573,97.978c-2.301,2.437-6.142,2.548-8.579.246-2.437-2.301-2.548-6.142-.247-8.579,2.301-2.437,6.142-2.548,8.58-.247,2.437,2.301,2.547,6.142.246,8.579ZM101.211,65.675c3.301.583,5.504,3.731,4.921,7.032-.583,3.301-3.731,5.504-7.032,4.921-3.301-.583-5.504-3.731-4.921-7.032.583-3.301,3.731-5.504,7.032-4.921Z"/></svg>