<?xml version="1.0" encoding="UTF-8"?><svg id="c" xmlns="http://www.w3.org/2000/svg" viewBox="0 0 118.129 118.968"><defs><style>.d{fill:#82bd48;}</style></defs><path class="d" d="M34.952,63.757v4.958c-.238-.087-.485-.155-.739-.201s-.516-.071-.784-.071c-.229,0-.454.017-.673.051-.22.034-.434.083-.642.147v-4.896c-4.625.664-8.18,4.641-8.18,9.45,0,2.054.651,3.955,1.754,5.512l1.999-2.077.061-.063,1.665-1.73c.211.438.491.835.826,1.179.084.086.171.168.261.247.271.237.571.441.895.608l-1.771,1.84h0l-1.969,2.046c1.613,1.245,3.633,1.987,5.828,1.987,2.274,0,4.361-.796,6.001-2.123l-2.059-1.873-2.029-1.845c.218-.108.426-.232.622-.372.588-.42,1.069-.979,1.396-1.63l3.99,3.63c1.028-1.523,1.628-3.359,1.628-5.335,0-4.774-3.504-8.73-8.08-9.436ZM33.483,75.767c-1.488,0-2.693-1.206-2.693-2.693s1.206-2.693,2.693-2.693,2.693,1.206,2.693,2.693-1.206,2.693-2.693,2.693ZM117.962,72.553l-1.909-3.26-3.979-6.795-4.699-8.025c-.133-.227-.377-.367-.64-.367h-14.949c-.187,0-.368-.071-.505-.198l-16.452-15.287c-.126-.117-.288-.186-.459-.197l-35.317-2.196c-.253-.016-.496.099-.646.304l-12.058,16.546c-.131.179-.334.291-.556.304l-25.029,1.485c-.546.032-.871.624-.604,1.102l9.656,17.321c.131.235.379.381.648.381h10.758c.26,0,.485-.133.617-.335.079-.121.125-.266.125-.422v-.008c0-.228.008-.454.021-.679.004-.069.01-.137.016-.206.012-.159.026-.316.045-.473.009-.074.018-.149.028-.223.022-.158.046-.315.074-.47.011-.063.021-.126.034-.188.041-.209.086-.417.138-.622.001-.006.002-.011.004-.017.056-.221.12-.44.189-.656.008-.027.018-.053.027-.079.087-.268.187-.53.293-.79.023-.055.046-.11.07-.165.091-.212.188-.421.29-.627.026-.052.051-.105.078-.156.266-.513.568-1.005.905-1.471.004-.006.008-.012.012-.017.171-.236.352-.465.54-.687.009-.011.019-.022.028-.033.373-.436.778-.844,1.21-1.221.023-.02.047-.041.071-.061.214-.183.434-.36.661-.528.007-.005.014-.01.021-.015.221-.162.448-.316.68-.462.026-.016.051-.033.076-.049.232-.144.469-.279.711-.407.038-.02.077-.039.116-.059.246-.126.495-.246.751-.355h.001c.253-.108.511-.204.772-.294.051-.017.101-.035.153-.052.257-.084.517-.161.781-.227.038-.009.076-.017.114-.026.244-.059.491-.109.741-.152.046-.008.09-.017.136-.024.269-.043.541-.076.816-.1.059-.005.119-.009.179-.014.283-.021.568-.035.856-.035h.003c.288,0,.573.014.856.035.06.004.119.008.179.014.275.024.547.057.816.1.046.007.091.016.136.024.25.043.497.094.741.152.038.009.076.017.114.026.264.066.524.143.781.227.051.017.102.034.153.052.261.09.52.186.773.293h0c.256.109.506.229.752.355.038.02.077.039.115.059.242.128.48.263.711.407.025.016.05.032.076.049.232.147.46.3.681.463.007.005.014.01.021.015.227.168.447.345.661.529.023.02.047.04.07.061.433.377.838.785,1.211,1.221.009.011.019.021.028.032.189.222.369.451.541.687.004.006.008.012.012.017.337.465.639.958.906,1.471.027.051.051.103.077.155.103.206.2.415.291.628.023.055.047.109.07.165.106.259.205.522.293.79.009.027.018.053.027.079.069.216.132.434.189.656.001.006.002.011.004.017.052.205.097.412.138.622.012.062.023.125.034.188.028.156.053.313.074.47.01.074.02.148.028.223.018.157.033.315.045.473.005.069.012.137.016.206.013.225.021.451.021.679v.008c0,.156.046.301.125.422.132.202.357.335.617.335h26.119c.26,0,.485-.133.617-.335.079-.121.125-.266.125-.422v-.008c0-.228.008-.454.021-.679.004-.069.01-.137.016-.206.012-.159.026-.316.044-.473.009-.074.018-.149.028-.223.022-.158.046-.314.074-.47.011-.063.022-.127.034-.19.041-.209.086-.416.138-.621.001-.006.002-.011.004-.017.056-.221.12-.44.188-.656.008-.027.018-.053.027-.079.088-.268.187-.531.293-.79.023-.055.046-.11.07-.164.091-.212.188-.422.291-.627.026-.052.051-.104.077-.156.266-.514.568-1.006.905-1.471.004-.006.008-.012.012-.017.172-.236.352-.465.54-.687.009-.011.019-.022.029-.033.373-.436.777-.844,1.21-1.22.024-.02.047-.041.071-.061.214-.184.434-.36.661-.528.007-.005.014-.01.021-.015.221-.162.448-.316.681-.463.025-.016.05-.033.076-.049.232-.144.469-.279.711-.407.038-.02.077-.039.115-.059.246-.126.495-.246.751-.355h.001c.252-.108.511-.204.772-.294.051-.017.102-.035.153-.052.257-.084.517-.161.781-.227.038-.009.076-.017.114-.026.244-.059.491-.109.741-.152.045-.008.09-.017.136-.024.269-.043.541-.076.816-.1.059-.005.119-.009.179-.014.283-.021.568-.035.856-.035h.003c.288,0,.573.014.856.035.06.004.119.008.179.014.275.024.547.057.816.1.046.007.091.016.136.024.25.043.497.094.741.152.038.009.076.017.114.026.264.066.524.143.781.227.051.017.102.034.153.052.261.09.52.186.772.293h.001c.256.109.505.229.751.355.038.02.077.039.115.059.242.128.479.263.711.407.025.016.05.032.076.049.232.147.46.3.681.463.007.005.014.01.021.015.227.168.447.345.661.528.024.02.047.041.07.061.432.377.837.784,1.21,1.221.009.011.019.022.028.033.188.222.369.451.541.687.004.006.008.011.012.017.337.465.639.958.906,1.472.027.051.051.103.077.155.103.206.2.415.291.628.023.054.047.109.07.164.106.259.205.522.293.79h0c.009.027.018.053.027.079.069.216.132.434.188.656.001.006.002.011.004.017.052.205.097.412.138.622.012.062.022.125.034.188.028.156.053.313.074.47.01.074.02.148.028.223.018.157.032.315.044.473.005.069.012.137.016.206.013.225.021.451.021.679v.008c0,.156.046.301.125.422.132.202.357.335.617.335h20.462c.215,0,.4-.088.531-.223s.21-.319.212-.511c.002-.128-.03-.26-.103-.383ZM57.173,54.415c0,.288-.233.521-.521.521h-22.951c-.438,0-.681-.508-.405-.849.099-.122.248-.193.405-.193h6.36c.246,0,.459-.173.51-.413l.936-4.445c.053-.254-.089-.509-.333-.597l-4.729-1.702c-.306-.11-.437-.47-.274-.751l4.056-6.326c.101-.174.292-.274.492-.258l15.975,1.573c.271.022.479.248.479.519v12.922ZM78.947,54.948h-16.644c-.445,0-.809-.354-.822-.798l-.346-11.898c-.013-.463.358-.846.822-.846l10.763.597c.306,0,.587.17.728.441l6.227,11.301c.287.547-.111,1.203-.728,1.203ZM85.637,63.757v4.958c-.238-.087-.485-.155-.739-.201s-.516-.071-.784-.071c-.229,0-.454.017-.673.051-.22.034-.434.083-.642.147v-4.896c-4.625.664-8.18,4.641-8.18,9.45,0,2.054.651,3.955,1.754,5.512l3.725-3.871c.211.438.491.835.826,1.179.084.086.171.168.261.247.271.237.571.441.895.608l-1.808,1.879h0l-1.932,2.007c1.613,1.245,3.633,1.987,5.828,1.987,2.274,0,4.361-.796,6.001-2.123l-2.1-1.91h0l-1.988-1.808c.218-.108.426-.232.622-.372.588-.42,1.069-.979,1.396-1.63l3.99,3.63c1.028-1.523,1.628-3.359,1.628-5.335,0-4.774-3.504-8.73-8.08-9.436ZM84.168,75.767c-1.488,0-2.693-1.206-2.693-2.693s1.206-2.693,2.693-2.693,2.693,1.206,2.693,2.693-1.206,2.693-2.693,2.693Z"/></svg>