<?xml version="1.0" encoding="UTF-8"?><svg id="c" xmlns="http://www.w3.org/2000/svg" viewBox="0 0 118.129 118.968"><defs><style>.d{fill:#82bd48;}</style></defs><path class="d" d="M114.549,56.444h-4.846v7.411h-11.021v-10.384c0-.279-.033-.553-.07-.827h.009c-.003-.025-.012-.05-.015-.075-.021-.144-.056-.284-.087-.426-.037-.169-.079-.336-.13-.5-.041-.132-.086-.261-.136-.39-.071-.183-.153-.361-.242-.537-.051-.101-.097-.203-.153-.301-.156-.272-.328-.535-.526-.782l-10.281-12.786c-2.016-2.507-5.06-3.965-8.277-3.965h-15.623v-5.891h16.151v-4.488c0-1.089-.883-1.972-1.972-1.972h-36.339c-1.089,0-1.972.883-1.972,1.972v4.488h16.911v5.891h-16.085c-3.596,0-6.949,1.82-8.908,4.836l-7.842,12.074c-.151.232-.282.475-.399.724-.041.086-.071.175-.108.263-.069.165-.135.331-.189.501-.034.109-.061.22-.09.33-.039.155-.075.309-.102.467-.021.119-.037.238-.051.359-.008.07-.024.138-.029.208h.014c-.013.161-.035.321-.035.484v7.117h-4.56c-.209,0-.413.023-.61.062-.103.02-.199.055-.298.084-.077.023-.157.037-.231.065v.007c-1.219.462-2.09,1.632-2.09,3.013v6.366h-7.791v-16.151H2.037c-1.089,0-1.972.883-1.972,1.972v36.339c0,1.089.883,1.972,1.972,1.972h4.488v-16.911h7.791v7.126c0,1.381.871,2.551,2.09,3.013v.007c.074.028.155.042.231.065.099.029.195.065.298.084.198.039.401.062.61.062h4.56v2.565c0,4.67,3.786,8.456,8.456,8.456h59.665c4.67,0,8.456-3.786,8.456-8.456v-8.076h11.021v4.75h4.846c1.941,0,3.515-1.574,3.515-3.515v-23.182c0-1.941-1.574-3.515-3.515-3.515ZM59.199,84.783v-10.091l-10.452-.05,10.624-16.648v10.091l10.452.05-10.624,16.648Z"/></svg>