<?xml version="1.0" encoding="UTF-8"?><svg id="c" xmlns="http://www.w3.org/2000/svg" viewBox="0 0 118.129 118.968"><defs><style>.d{fill:#82bd48;}</style></defs><path class="d" d="M83.283,28.481c.019,0,.039,0,.059,0,1.091-.032,1.951-.943,1.918-2.034-.002-.072-.006-.886.505-1.841v3.44c-.098.057-.174.125-.268.184,1.163-.735,2.599-1.337,4.42-1.668,4.666-.848,7.527-1.535,9.362-2.6v-4.447c2.2-.852,3.885-1.984,5.12-3.734.129-.182.199-.384.259-.587-.125-.398-.367-.763-.734-1.022-.892-.629-2.126-.416-2.755.475-1.525,2.16-4.566,3.017-11.252,4.233-6.215,1.13-8.239,5.259-8.558,7.916.147.953.939,1.686,1.922,1.686ZM44.662,77.82h.002c.234-.125.454-.235.655-.332-.529-6.657-.56-10.046-.153-16.72-.245.126-.509.268-.787.422-.139.077-.289.167-.435.252-.141.082-.278.159-.425.248-.202.122-.413.256-.625.391-.1.064-.198.125-.301.192-.243.159-.492.33-.745.507-.078.055-.154.107-.233.164-.272.194-.546.399-.826.614-.064.049-.128.099-.193.149-.293.229-.587.469-.886.721-.051.043-.102.088-.154.132-.311.267-.621.544-.933.837-.035.033-.07.068-.105.101-.328.311-.654.632-.98.973h0c-3.425,3.589-6.627,8.874-7.374,16.452.575,4.534.974,6.78,1.992,11.157,1.188-5.116,3.639-8.849,6.199-11.506h0c2.289-2.375,4.664-3.891,6.304-4.755ZM83.283,46.139c.019,0,.039,0,.059,0,1.091-.032,1.951-.943,1.918-2.034-.002-.072-.006-.886.505-1.841v3.44c-.098.057-.174.125-.268.185,1.163-.735,2.599-1.337,4.42-1.668,4.659-.846,7.523-1.528,9.362-2.589v-4.457c2.2-.852,3.885-1.984,5.12-3.735.129-.182.199-.385.259-.587-.125-.398-.367-.763-.734-1.022-.893-.631-2.127-.416-2.755.475-1.526,2.161-4.566,3.018-11.252,4.233-6.214,1.131-8.238,5.259-8.557,7.915.147.953.939,1.686,1.922,1.686ZM57.937,26.225c4.082,4.898,7.232,16.053,8.358,29.89h9.31c-1.526-18.756-6.773-32.583-13.013-32.583-1.636,0-3.204.953-4.655,2.693ZM44.638,25.522c-4.242,3.017-8.638,7.365-11.792,13.695-1.132,4.324-1.587,6.548-2.276,11.05,4.217-6.971,9.638-11.116,13.941-13.552,1.663-.942,3.157-1.629,4.351-2.123.053-.022.107-.045.159-.066.368-.15.712-.286,1.014-.399.795-2.489,1.23-3.712,2.18-6.1.225-.566.414-1.113.584-1.65.871-1.911,2.912-4.897,7.366-5.669.124-.021.25-.041.379-.059,0,0-.011-.012-.03-.032-.008-.009-.016-.016-.03-.029-.02-.02-.045-.042-.077-.069-.019-.017-.035-.03-.059-.049-.047-.038-.104-.079-.17-.123-.031-.021-.065-.041-.1-.063-.065-.039-.134-.079-.213-.12-.047-.024-.098-.047-.15-.071-.072-.033-.15-.064-.233-.096-.062-.024-.123-.047-.191-.07-.128-.042-.268-.08-.419-.114-.083-.019-.173-.033-.262-.048-.124-.022-.252-.041-.39-.056-.099-.011-.202-.017-.309-.023-.135-.008-.279-.01-.427-.01-.112,0-.221-.001-.341.004-.252.011-.517.033-.803.071-.114.015-.239.042-.359.061-.205.034-.415.073-.636.123-.152.034-.308.073-.467.115-.226.059-.462.129-.705.205-.157.049-.307.093-.471.149-.373.129-.76.274-1.17.444,0,0-.002.003-.003.005-2.101.875-4.691,2.321-7.877,4.656-.005.004-.009.007-.015.011ZM99.353,15.093c-.023.014-.049.027-.072.04v.01c.027-.016.046-.035.072-.051ZM48.571,39.171c-.367.162-.784.358-1.222.569-.067.033-.133.065-.202.099-1.426.7-3.157,1.668-5.002,2.975h0c-4.719,3.342-10.118,8.906-12.696,18.003-.278,4.59-.306,6.906-.142,11.507,2.275-5.599,5.609-9.513,8.784-12.212,2.99-2.541,5.84-4.006,7.529-4.751.712-6.623,1.302-9.905,2.95-16.191ZM99.281,6.315V.484h-13.515v9.904c1.116-.653,2.479-1.179,4.153-1.484,4.658-.847,7.522-1.529,9.362-2.59ZM85.011,19.736c-.422.303-.805.621-1.143.956.5-.157.903-.504,1.143-.956ZM99.354,23.921c-.023.014-.049.027-.073.041v.01c.027-.016.046-.035.073-.051ZM83.283,19.653c.019,0,.039,0,.059,0,1.091-.032,1.951-.943,1.918-2.034-.002-.072-.006-.886.505-1.841v3.44c-.099.058-.175.126-.27.186,1.163-.736,2.601-1.338,4.423-1.669,4.665-.848,7.527-1.534,9.362-2.6v-4.447c2.2-.852,3.885-1.984,5.12-3.734.129-.182.199-.384.259-.587-.125-.398-.367-.763-.734-1.022-.892-.628-2.126-.417-2.755.475-1.525,2.16-4.566,3.017-11.252,4.233-6.215,1.13-8.239,5.259-8.558,7.915.147.953.939,1.686,1.922,1.686ZM83.283,37.31c.019,0,.039,0,.059,0,1.091-.032,1.951-.943,1.918-2.034-.002-.072-.006-.886.505-1.841v3.44c-.098.057-.174.125-.268.184,1.163-.735,2.599-1.337,4.42-1.668,4.659-.846,7.523-1.528,9.362-2.59v-4.457c2.2-.852,3.885-1.984,5.12-3.734.129-.182.199-.385.259-.587-.125-.398-.367-.763-.734-1.022-.893-.631-2.127-.416-2.755.475-1.525,2.16-4.566,3.017-11.252,4.233-6.214,1.131-8.238,5.259-8.557,7.916.147.953.939,1.686,1.922,1.686ZM51.725,106.805c-.354-.92-.627-1.683-1.034-2.868-.293.169-.62.375-.958.604-.048.032-.092.06-.141.094-.332.229-.679.488-1.034.774-.06.049-.119.096-.179.147-.361.298-.724.622-1.088.979-.048.047-.094.097-.142.145-2.47,2.484-4.763,6.349-4.159,11.806h6.923c.072,0,.136-.012.206-.015.182.009.372.015.572.015.406,0,.753-.054,1.131-.08.008.012.017.027.025.039.22-.015.402-.061.612-.084.345-.038.679-.08.999-.137.353-.064.682-.138,1.005-.221.293-.076.58-.149.849-.238.298-.098.568-.203.836-.314.241-.099.481-.193.698-.299.247-.12.463-.241.681-.366.188-.108.381-.211.547-.319.2-.13.364-.252.534-.377.137-.101.282-.2.399-.297.157-.128.274-.236.398-.35.086-.079.184-.161.255-.231.121-.121.199-.207.276-.293.034-.038.08-.083.105-.114.082-.096.124-.153.124-.153-4.488-.537-7.132-4.857-8.441-7.844ZM45.261,101.543c.024-.021.049-.042.073-.063.457-.388.91-.736,1.345-1.046.034-.024.067-.047.101-.071.426-.299.836-.564,1.215-.79.033-.02.064-.037.098-.056.377-.221.73-.414,1.035-.566-1.771-6.222-2.422-9.482-3.256-16.076-.384.216-.824.488-1.288.794-.057.038-.107.069-.165.108-.461.31-.95.67-1.455,1.07-.068.054-.132.105-.201.161-.517.419-1.043.883-1.573,1.399-.051.05-.101.102-.152.153-.552.548-1.101,1.141-1.632,1.801h0c-2.814,3.497-5.103,8.584-4.414,15.622,1.429,4.155,2.254,6.17,4.126,10.002.212-5.003,2.36-8.621,4.729-11.105.467-.49.942-.932,1.413-1.336ZM104.39,58.761h-5.109v-12.759c2.2-.852,3.885-1.984,5.12-3.734.129-.182.199-.385.259-.587-.125-.398-.367-.763-.734-1.022-.892-.63-2.126-.416-2.755.475-1.526,2.16-4.566,3.017-11.252,4.232-6.214,1.131-8.238,5.26-8.557,7.917.147.953.939,1.686,1.922,1.686.019,0,.039,0,.059,0,1.091-.032,1.951-.943,1.918-2.034-.002-.072-.006-.887.505-1.841v7.669h-23.145c-.813-10.29-3.176-12.502-5.967-12.502-3.463,0-6.271,1.076-6.271,21.412,0,18.867,2.808,21.412,6.271,21.412,3.156,0,5.759-4.484,6.199-17.413h41.538c2.277,0,4.122-1.846,4.122-4.122v-4.666c0-2.277-1.846-4.122-4.122-4.122ZM16.944,108.056c2.391,6.015,8.283,10.429,12.299,10.429h6.929c-8.505-8.23-16.653-12.861-20.752-14.55.574,1.672.879,2.497,1.525,4.121ZM57.937,108.517c1.451,1.741,3.018,2.693,4.655,2.693,6.294,0,11.578-14.066,13.052-33.069h-9.311c-1.091,14.062-4.267,25.421-8.397,30.376ZM25.464,72.312c-.165-4.606-.136-6.925.144-11.519-2.264-13.926-8.786-19.599-12.306-21.625-1.649,6.286-2.239,9.569-2.951,16.191,3.148,1.532,9.915,6.083,15.114,16.953ZM37.656,17.598c-3.365,0-5.048,0-8.413,0-.668,0-1.389.133-2.135.364,2.205,2.135,4.283,5.59,4.997,11.492,1.889-4.996,2.999-7.393,5.552-11.856ZM31.142,103.96c-7.443-12.609-16.22-18.964-20.54-21.089.834,6.594,1.485,9.854,3.255,16.076,3.723,1.44,12.182,5.973,21.414,15.026-1.873-3.836-2.699-5.853-4.128-10.013ZM26.728,50.255c.69-4.507,1.146-6.733,2.28-11.061.277-11.16-3.462-16.162-6.639-18.546-2.232,1.845-4.249,4.422-5.424,7.378-.949,2.387-1.385,3.61-2.179,6.098,2.861,1.416,8.781,5.495,11.963,16.131ZM51.637,17.964c-.486-.232-1.055-.365-1.724-.365-3.365,0-5.048,0-8.413,0-2.555,4.466-3.666,6.866-5.556,11.866,5.178-5.907,11.075-9.365,15.693-11.501ZM28.311,94.069c-1.019-4.382-1.417-6.631-1.993-11.17-4.853-13.757-12.503-19.984-16.423-22.135-.408,6.675-.377,10.063.152,16.72,3.436,1.54,11.049,6.242,18.264,16.584Z"/></svg>