<?xml version="1.0" encoding="UTF-8"?><svg id="Layer_1" xmlns="http://www.w3.org/2000/svg" viewBox="0 0 100 100"><defs><style>.cls-1{fill:none;stroke:#ccc;stroke-miterlimit:10;}.cls-2{fill:#333;}</style></defs><circle class="cls-1" cx="50" cy="50" r="47.5"/><path class="cls-2" d="M41.212,8.365l2.814-.504.169.945-1.834.329.203,1.137,1.357-.243.152.853-1.357.243.204,1.138,1.833-.328.167.938-2.814.504-.896-5.011Z"/><path class="cls-2" d="M47.917,7.479l1.018-.004.892,3.591.855-3.601,1.019-.004-1.347,5.098-1.046.004-1.39-5.083Z"/><path class="cls-2" d="M54.854,11.151l.982.168c-.101.584.157.878.592.952.413.07.752-.069.823-.482.072-.42-.361-.633-.854-.887-.616-.332-1.311-.729-1.14-1.727.157-.918.907-1.362,1.904-1.19.969.167,1.526.928,1.35,1.96l-.968-.166c.091-.534-.129-.828-.55-.9-.421-.072-.689.087-.754.465-.073.427.331.636.803.878.627.319,1.368.695,1.191,1.728-.163.954-.944,1.408-1.963,1.233-1.019-.175-1.603-.957-1.418-2.032Z"/><path class="cls-2" d="M66.166,13.556l1.748.828-.317.673-1.749-.829.318-.671Z"/><path class="cls-2" d="M76.772,16.929l2.165,1.866-.627.727-1.41-1.216-.755.875,1.044.9-.565.656-1.044-.9-.754.874,1.41,1.217-.622.721-2.165-1.866,3.323-3.854Z"/><path class="cls-2" d="M81.936,21.885l.639.765-3.182,2.647,1.081,1.3-.733.61-1.719-2.066,3.914-3.257Z"/><path class="cls-2" d="M86.003,27.329l1.444,2.469-.829.484-.941-1.607-.997.583.696,1.191-.748.437-.696-1.19-.998.583.941,1.608-.823.48-1.443-2.467,4.395-2.571Z"/><path class="cls-2" d="M86.029,34.686l1.636-.616c.966-.363,1.889.038,2.245.983.396,1.054-.087,1.862-1.188,2.276l-.013.005-.352-.933.067-.025c.703-.265.715-.662.593-.987-.122-.324-.425-.596-.972-.39l-1.689.636c-.562.212-.603.612-.481.937.163.432.463.591,1.158.328l.061-.021.352.931-.027.011c-1.196.45-2.029.162-2.434-.912-.356-.946.072-1.856,1.045-2.223Z"/><path class="cls-2" d="M90.741,41.71l-.2-1.043.943-.182.59,3.065-.943.181-.201-1.043-4.059.782-.188-.979,4.059-.781Z"/><path class="cls-2" d="M92.465,47.565l.045.997-5.087.227-.045-.997,5.087-.227Z"/><path class="cls-2" d="M89.074,52.522l1.738.19c1.025.111,1.668.887,1.559,1.892-.123,1.121-.918,1.622-2.088,1.495l-.015-.002.107-.991.072.008c.746.082.938-.268.975-.613.038-.344-.109-.724-.691-.786l-1.795-.197c-.596-.064-.814.275-.852.619-.051.46.145.735.884.815l.064.008-.107.99-.028-.002c-1.271-.139-1.885-.773-1.761-1.914.109-1.006.904-1.624,1.938-1.512Z"/><path class="cls-2" d="M89.908,64.779l-.394.938-3.649-.586,2.975,2.195-.395.938-4.158-3.232.405-.964,5.216.711Z"/><path class="cls-2" d="M86.547,71.78l-1.539,2.408-.809-.516,1.002-1.569-.973-.622-.742,1.161-.729-.466.742-1.162-.974-.622-1.002,1.569-.803-.514,1.538-2.408,4.288,2.74Z"/><path class="cls-2" d="M82.352,77.659l-.676.731-1.553-1.435-.911.986,1.553,1.436-.675.731-3.738-3.452.676-.731,1.548,1.43.911-.987-1.549-1.43.676-.731,3.738,3.452Z"/><path class="cls-2" d="M76.713,83.102l-.784.616-3.146-4.006.784-.616,3.146,4.006Z"/><path class="cls-2" d="M70.711,83.224l.859,1.521c.508.897.254,1.87-.625,2.368-.98.554-1.852.2-2.43-.823l-.008-.013.867-.49.035.063c.369.653.765.604,1.065.434.302-.171.523-.511.235-1.021l-.887-1.571c-.295-.521-.697-.5-.999-.329-.402.227-.512.546-.146,1.192l.032.058-.866.489-.015-.024c-.629-1.112-.473-1.979.526-2.545.879-.497,1.844-.212,2.354.691Z"/><path class="cls-2" d="M65.51,89.605l-.937.339-1.406-3.887-1.587.573-.324-.895,2.523-.913,1.73,4.782Z"/><path class="cls-2" d="M59.01,91.59l-2.815.518-.173-.945,1.833-.336-.208-1.138-1.357.25-.158-.854,1.358-.249-.209-1.138-1.834.337-.172-.938,2.815-.518.92,5.011Z"/><path class="cls-2" d="M47.549,89.073l-.991-.107c.064-.59-.21-.866-.648-.913-.417-.047-.746.114-.792.53-.046.424.398.61.904.833.636.294,1.354.649,1.244,1.654-.101.926-.823,1.414-1.828,1.303-.977-.105-1.58-.833-1.466-1.874l.976.107c-.059.538.179.818.604.865.423.046.682-.13.724-.511.047-.431-.369-.613-.854-.826-.645-.281-1.407-.611-1.294-1.653.105-.962.857-1.461,1.884-1.348,1.027.111,1.657.856,1.539,1.939Z"/><path class="cls-2" d="M39.571,91.242l-2.747-.788.265-.923,1.79.514.318-1.11-1.325-.38.239-.832,1.325.38.318-1.11-1.789-.513.263-.916,2.747.787-1.403,4.892Z"/><path class="cls-2" d="M32.755,88.898l-1.454-.708c-.915-.444-1.244-1.335-.726-2.4l.063-.129c.344-.708.88-1.033,1.48-1.014l-.097-1.765.98.478.042,1.48.467.229.575-1.182.896.436-2.228,4.575ZM32.65,85.701c-.39-.19-.835-.198-1.129.405l-.063.13c-.307.629-.031.956.371,1.151l.448.219.821-1.688-.447-.218Z"/><path class="cls-2" d="M26.385,85.416l-.821-.602,1.419-3.418-2.83,2.385-.822-.602,4.115-3.297.844.619-1.906,4.914Z"/><path class="cls-2" d="M20.398,80.542l-.707-.702,3.586-3.612.707.702-3.585,3.612Z"/><path class="cls-2" d="M19.547,74.611l-1.403,1.038c-.83.612-1.825.479-2.426-.334-.668-.905-.424-1.813.522-2.511l.012-.009.591.801-.058.043c-.604.445-.507.832-.301,1.109.206.279.571.458,1.041.11l1.451-1.071c.482-.355.413-.752.207-1.03-.274-.372-.604-.442-1.202-.002l-.052.039-.591-.8.023-.018c1.026-.758,1.906-.708,2.587.214.6.812.436,1.804-.401,2.42Z"/><path class="cls-2" d="M12.592,70.236l-1.3-2.546.854-.437.848,1.659,1.028-.525-.627-1.229.771-.394.627,1.228,1.028-.525-.847-1.658.849-.434,1.3,2.546-4.532,2.314Z"/><path class="cls-2" d="M13.062,62.966l-.289-.954c.566-.171.713-.532.586-.954-.122-.4-.398-.642-.799-.521-.407.123-.405.605-.411,1.159-.022.699-.067,1.497-1.035,1.791-.892.27-1.623-.203-1.916-1.17-.284-.939.148-1.779,1.149-2.084l.284.939c-.518.157-.682.486-.559.894.124.408.386.577.752.468.415-.126.42-.58.426-1.11.007-.703.011-1.534,1.013-1.838.926-.28,1.679.216,1.979,1.203.298.988-.139,1.861-1.182,2.177Z"/><circle class="cls-1" cx="50" cy="50" r="32.515"/></svg>